<?xml version="1.0" encoding="iso-8859-1"?>
<!-- Generator: Adobe Illustrator 19.0.0, SVG Export Plug-In . SVG Version: 6.00 Build 0)  -->
<svg version="1.1" id="Layer_1" xmlns="http://www.w3.org/2000/svg" xmlns:xlink="http://www.w3.org/1999/xlink" x="0px" y="0px"
	 viewBox="0 0 512 512" style="enable-background:new 0 0 512 512;" xml:space="preserve">
<rect x="46.265" y="4.625" style="fill:#F8F8F9;" width="271.422" height="468.819"/>
<rect x="256" y="4.625" style="fill:#EDEDED;" width="61.687" height="468.819"/>
<polyline style="fill:#DBDBDB;" points="465.735,461.105 465.735,103.324 317.687,103.324 317.687,461.105 "/>
<g>
	<path style="fill:#B4D8F1;" d="M428.723,161.926h-74.024c-5.11,0-9.253-4.142-9.253-9.253c0-5.111,4.143-9.253,9.253-9.253h74.024
		c5.11,0,9.253,4.142,9.253,9.253C437.976,157.785,433.833,161.926,428.723,161.926z"/>
	<path style="fill:#B4D8F1;" d="M428.723,211.276h-74.024c-5.11,0-9.253-4.142-9.253-9.253s4.143-9.253,9.253-9.253h74.024
		c5.11,0,9.253,4.142,9.253,9.253S433.833,211.276,428.723,211.276z"/>
	<path style="fill:#B4D8F1;" d="M428.723,260.625h-74.024c-5.11,0-9.253-4.142-9.253-9.253c0-5.111,4.143-9.253,9.253-9.253h74.024
		c5.11,0,9.253,4.142,9.253,9.253C437.976,256.484,433.833,260.625,428.723,260.625z"/>
	<path style="fill:#B4D8F1;" d="M428.723,309.975h-74.024c-5.11,0-9.253-4.142-9.253-9.253s4.143-9.253,9.253-9.253h74.024
		c5.11,0,9.253,4.142,9.253,9.253S433.833,309.975,428.723,309.975z"/>
	<path style="fill:#B4D8F1;" d="M428.723,359.324h-74.024c-5.11,0-9.253-4.142-9.253-9.253c0-5.111,4.143-9.253,9.253-9.253h74.024
		c5.11,0,9.253,4.142,9.253,9.253C437.976,355.182,433.833,359.324,428.723,359.324z"/>
	<path style="fill:#B4D8F1;" d="M428.723,408.673h-74.024c-5.11,0-9.253-4.142-9.253-9.253c0-5.111,4.143-9.253,9.253-9.253h74.024
		c5.11,0,9.253,4.142,9.253,9.253C437.976,404.532,433.833,408.673,428.723,408.673z"/>
</g>
<g>
	<path style="fill:#D1E5F5;" d="M89.446,75.565c-5.11,0-9.253-4.142-9.253-9.253V53.975c0-5.111,4.143-9.253,9.253-9.253
		s9.253,4.142,9.253,9.253v12.337C98.699,71.423,94.556,75.565,89.446,75.565z"/>
	<path style="fill:#D1E5F5;" d="M126.458,75.565c-5.11,0-9.253-4.142-9.253-9.253V53.975c0-5.111,4.143-9.253,9.253-9.253
		s9.253,4.142,9.253,9.253v12.337C135.711,71.423,131.568,75.565,126.458,75.565z"/>
	<path style="fill:#D1E5F5;" d="M163.47,75.565c-5.11,0-9.253-4.142-9.253-9.253V53.975c0-5.111,4.143-9.253,9.253-9.253
		c5.11,0,9.253,4.142,9.253,9.253v12.337C172.723,71.423,168.58,75.565,163.47,75.565z"/>
	<path style="fill:#D1E5F5;" d="M200.482,75.565c-5.11,0-9.253-4.142-9.253-9.253V53.975c0-5.111,4.143-9.253,9.253-9.253
		s9.253,4.142,9.253,9.253v12.337C209.735,71.423,205.592,75.565,200.482,75.565z"/>
	<path style="fill:#D1E5F5;" d="M237.494,75.565c-5.11,0-9.253-4.142-9.253-9.253V53.975c0-5.111,4.143-9.253,9.253-9.253
		c5.11,0,9.253,4.142,9.253,9.253v12.337C246.747,71.423,242.604,75.565,237.494,75.565z"/>
</g>
<path style="fill:#B4D8F1;" d="M274.506,75.565c-5.11,0-9.253-4.142-9.253-9.253V53.975c0-5.111,4.143-9.253,9.253-9.253
	c5.11,0,9.253,4.142,9.253,9.253v12.337C283.759,71.423,279.616,75.565,274.506,75.565z"/>
<g>
	<path style="fill:#D1E5F5;" d="M89.446,137.252c-5.11,0-9.253-4.142-9.253-9.253v-12.337c0-5.111,4.143-9.253,9.253-9.253
		s9.253,4.142,9.253,9.253v12.337C98.699,133.11,94.556,137.252,89.446,137.252z"/>
	<path style="fill:#D1E5F5;" d="M126.458,137.252c-5.11,0-9.253-4.142-9.253-9.253v-12.337c0-5.111,4.143-9.253,9.253-9.253
		s9.253,4.142,9.253,9.253v12.337C135.711,133.11,131.568,137.252,126.458,137.252z"/>
	<path style="fill:#D1E5F5;" d="M163.47,137.252c-5.11,0-9.253-4.142-9.253-9.253v-12.337c0-5.111,4.143-9.253,9.253-9.253
		c5.11,0,9.253,4.142,9.253,9.253v12.337C172.723,133.11,168.58,137.252,163.47,137.252z"/>
	<path style="fill:#D1E5F5;" d="M200.482,137.252c-5.11,0-9.253-4.142-9.253-9.253v-12.337c0-5.111,4.143-9.253,9.253-9.253
		s9.253,4.142,9.253,9.253v12.337C209.735,133.11,205.592,137.252,200.482,137.252z"/>
	<path style="fill:#D1E5F5;" d="M237.494,137.252c-5.11,0-9.253-4.142-9.253-9.253v-12.337c0-5.111,4.143-9.253,9.253-9.253
		c5.11,0,9.253,4.142,9.253,9.253v12.337C246.747,133.11,242.604,137.252,237.494,137.252z"/>
</g>
<path style="fill:#B4D8F1;" d="M274.506,137.252c-5.11,0-9.253-4.142-9.253-9.253v-12.337c0-5.111,4.143-9.253,9.253-9.253
	c5.11,0,9.253,4.142,9.253,9.253v12.337C283.759,133.11,279.616,137.252,274.506,137.252z"/>
<g>
	<path style="fill:#D1E5F5;" d="M89.446,198.939c-5.11,0-9.253-4.142-9.253-9.253v-12.337c0-5.111,4.143-9.253,9.253-9.253
		s9.253,4.142,9.253,9.253v12.337C98.699,194.797,94.556,198.939,89.446,198.939z"/>
	<path style="fill:#D1E5F5;" d="M126.458,198.939c-5.11,0-9.253-4.142-9.253-9.253v-12.337c0-5.111,4.143-9.253,9.253-9.253
		s9.253,4.142,9.253,9.253v12.337C135.711,194.797,131.568,198.939,126.458,198.939z"/>
	<path style="fill:#D1E5F5;" d="M163.47,198.939c-5.11,0-9.253-4.142-9.253-9.253v-12.337c0-5.111,4.143-9.253,9.253-9.253
		c5.11,0,9.253,4.142,9.253,9.253v12.337C172.723,194.797,168.58,198.939,163.47,198.939z"/>
	<path style="fill:#D1E5F5;" d="M200.482,198.939c-5.11,0-9.253-4.142-9.253-9.253v-12.337c0-5.111,4.143-9.253,9.253-9.253
		s9.253,4.142,9.253,9.253v12.337C209.735,194.797,205.592,198.939,200.482,198.939z"/>
	<path style="fill:#D1E5F5;" d="M237.494,198.939c-5.11,0-9.253-4.142-9.253-9.253v-12.337c0-5.111,4.143-9.253,9.253-9.253
		c5.11,0,9.253,4.142,9.253,9.253v12.337C246.747,194.797,242.604,198.939,237.494,198.939z"/>
</g>
<path style="fill:#B4D8F1;" d="M274.506,198.939c-5.11,0-9.253-4.142-9.253-9.253v-12.337c0-5.111,4.143-9.253,9.253-9.253
	c5.11,0,9.253,4.142,9.253,9.253v12.337C283.759,194.797,279.616,198.939,274.506,198.939z"/>
<g>
	<path style="fill:#D1E5F5;" d="M89.446,260.625c-5.11,0-9.253-4.142-9.253-9.253v-12.337c0-5.111,4.143-9.253,9.253-9.253
		s9.253,4.142,9.253,9.253v12.337C98.699,256.484,94.556,260.625,89.446,260.625z"/>
	<path style="fill:#D1E5F5;" d="M126.458,260.625c-5.11,0-9.253-4.142-9.253-9.253v-12.337c0-5.111,4.143-9.253,9.253-9.253
		s9.253,4.142,9.253,9.253v12.337C135.711,256.484,131.568,260.625,126.458,260.625z"/>
	<path style="fill:#D1E5F5;" d="M163.47,260.625c-5.11,0-9.253-4.142-9.253-9.253v-12.337c0-5.111,4.143-9.253,9.253-9.253
		c5.11,0,9.253,4.142,9.253,9.253v12.337C172.723,256.484,168.58,260.625,163.47,260.625z"/>
	<path style="fill:#D1E5F5;" d="M200.482,260.625c-5.11,0-9.253-4.142-9.253-9.253v-12.337c0-5.111,4.143-9.253,9.253-9.253
		s9.253,4.142,9.253,9.253v12.337C209.735,256.484,205.592,260.625,200.482,260.625z"/>
	<path style="fill:#D1E5F5;" d="M237.494,260.625c-5.11,0-9.253-4.142-9.253-9.253v-12.337c0-5.111,4.143-9.253,9.253-9.253
		c5.11,0,9.253,4.142,9.253,9.253v12.337C246.747,256.484,242.604,260.625,237.494,260.625z"/>
</g>
<path style="fill:#B4D8F1;" d="M274.506,260.625c-5.11,0-9.253-4.142-9.253-9.253v-12.337c0-5.111,4.143-9.253,9.253-9.253
	c5.11,0,9.253,4.142,9.253,9.253v12.337C283.759,256.484,279.616,260.625,274.506,260.625z"/>
<g>
	<path style="fill:#D1E5F5;" d="M89.446,322.312c-5.11,0-9.253-4.142-9.253-9.253v-12.337c0-5.111,4.143-9.253,9.253-9.253
		s9.253,4.142,9.253,9.253v12.337C98.699,318.17,94.556,322.312,89.446,322.312z"/>
	<path style="fill:#D1E5F5;" d="M126.458,322.312c-5.11,0-9.253-4.142-9.253-9.253v-12.337c0-5.111,4.143-9.253,9.253-9.253
		s9.253,4.142,9.253,9.253v12.337C135.711,318.17,131.568,322.312,126.458,322.312z"/>
	<path style="fill:#D1E5F5;" d="M163.47,322.312c-5.11,0-9.253-4.142-9.253-9.253v-12.337c0-5.111,4.143-9.253,9.253-9.253
		c5.11,0,9.253,4.142,9.253,9.253v12.337C172.723,318.17,168.58,322.312,163.47,322.312z"/>
	<path style="fill:#D1E5F5;" d="M200.482,322.312c-5.11,0-9.253-4.142-9.253-9.253v-12.337c0-5.111,4.143-9.253,9.253-9.253
		s9.253,4.142,9.253,9.253v12.337C209.735,318.17,205.592,322.312,200.482,322.312z"/>
	<path style="fill:#D1E5F5;" d="M237.494,322.312c-5.11,0-9.253-4.142-9.253-9.253v-12.337c0-5.111,4.143-9.253,9.253-9.253
		c5.11,0,9.253,4.142,9.253,9.253v12.337C246.747,318.17,242.604,322.312,237.494,322.312z"/>
</g>
<path style="fill:#B4D8F1;" d="M274.506,322.312c-5.11,0-9.253-4.142-9.253-9.253v-12.337c0-5.111,4.143-9.253,9.253-9.253
	c5.11,0,9.253,4.142,9.253,9.253v12.337C283.759,318.17,279.616,322.312,274.506,322.312z"/>
<g>
	<path style="fill:#D1E5F5;" d="M89.446,383.999c-5.11,0-9.253-4.142-9.253-9.253v-12.337c0-5.111,4.143-9.253,9.253-9.253
		s9.253,4.142,9.253,9.253v12.337C98.699,379.857,94.556,383.999,89.446,383.999z"/>
	<path style="fill:#D1E5F5;" d="M126.458,383.999c-5.11,0-9.253-4.142-9.253-9.253v-12.337c0-5.111,4.143-9.253,9.253-9.253
		s9.253,4.142,9.253,9.253v12.337C135.711,379.857,131.568,383.999,126.458,383.999z"/>
	<path style="fill:#D1E5F5;" d="M163.47,383.999c-5.11,0-9.253-4.142-9.253-9.253v-12.337c0-5.111,4.143-9.253,9.253-9.253
		c5.11,0,9.253,4.142,9.253,9.253v12.337C172.723,379.857,168.58,383.999,163.47,383.999z"/>
	<path style="fill:#D1E5F5;" d="M200.482,383.999c-5.11,0-9.253-4.142-9.253-9.253v-12.337c0-5.111,4.143-9.253,9.253-9.253
		s9.253,4.142,9.253,9.253v12.337C209.735,379.857,205.592,383.999,200.482,383.999z"/>
	<path style="fill:#D1E5F5;" d="M237.494,383.999c-5.11,0-9.253-4.142-9.253-9.253v-12.337c0-5.111,4.143-9.253,9.253-9.253
		c5.11,0,9.253,4.142,9.253,9.253v12.337C246.747,379.857,242.604,383.999,237.494,383.999z"/>
</g>
<path style="fill:#B4D8F1;" d="M274.506,383.999c-5.11,0-9.253-4.142-9.253-9.253v-12.337c0-5.111,4.143-9.253,9.253-9.253
	c5.11,0,9.253,4.142,9.253,9.253v12.337C283.759,379.857,279.616,383.999,274.506,383.999z"/>
<g>
	<path style="fill:#D1E5F5;" d="M89.446,445.686c-5.11,0-9.253-4.142-9.253-9.253v-12.337c0-5.111,4.143-9.253,9.253-9.253
		s9.253,4.142,9.253,9.253v12.337C98.699,441.544,94.556,445.686,89.446,445.686z"/>
	<path style="fill:#D1E5F5;" d="M126.458,445.686c-5.11,0-9.253-4.142-9.253-9.253v-12.337c0-5.111,4.143-9.253,9.253-9.253
		s9.253,4.142,9.253,9.253v12.337C135.711,441.544,131.568,445.686,126.458,445.686z"/>
	<path style="fill:#D1E5F5;" d="M163.47,445.686c-5.11,0-9.253-4.142-9.253-9.253v-12.337c0-5.111,4.143-9.253,9.253-9.253
		c5.11,0,9.253,4.142,9.253,9.253v12.337C172.723,441.544,168.58,445.686,163.47,445.686z"/>
	<path style="fill:#D1E5F5;" d="M200.482,445.686c-5.11,0-9.253-4.142-9.253-9.253v-12.337c0-5.111,4.143-9.253,9.253-9.253
		s9.253,4.142,9.253,9.253v12.337C209.735,441.544,205.592,445.686,200.482,445.686z"/>
	<path style="fill:#D1E5F5;" d="M237.494,445.686c-5.11,0-9.253-4.142-9.253-9.253v-12.337c0-5.111,4.143-9.253,9.253-9.253
		c5.11,0,9.253,4.142,9.253,9.253v12.337C246.747,441.544,242.604,445.686,237.494,445.686z"/>
</g>
<path style="fill:#B4D8F1;" d="M274.506,445.686c-5.11,0-9.253-4.142-9.253-9.253v-12.337c0-5.111,4.143-9.253,9.253-9.253
	c5.11,0,9.253,4.142,9.253,9.253v12.337C283.759,441.544,279.616,445.686,274.506,445.686z"/>
<path style="fill:#95D5A7;" d="M471.904,498.119c10.22,0,18.506-8.286,18.506-18.506c0-6.556-3.42-12.303-8.562-15.591
	c1.517-2.685,2.393-5.78,2.393-9.082c0-10.221-8.286-18.506-18.506-18.506c-4.746,0-9.062,1.801-12.337,4.74
	c-3.276-2.939-7.591-4.74-12.337-4.74s-9.062,1.801-12.337,4.74c-3.276-2.939-7.591-4.74-12.337-4.74s-9.062,1.801-12.337,4.74
	c-3.276-2.939-7.591-4.74-12.337-4.74s-9.062,1.801-12.337,4.74c-3.276-2.939-7.591-4.74-12.337-4.74
	c-4.746,0-9.062,1.801-12.337,4.74c-3.276-2.939-7.591-4.74-12.337-4.74s-9.062,1.801-12.337,4.74
	c-3.276-2.939-7.591-4.74-12.337-4.74c-4.746,0-9.062,1.801-12.337,4.74c-3.276-2.939-7.591-4.74-12.337-4.74
	s-9.062,1.801-12.337,4.74c-3.276-2.939-7.591-4.74-12.337-4.74c-4.746,0-9.062,1.801-12.337,4.74
	c-3.276-2.939-7.591-4.74-12.337-4.74c-4.746,0-9.062,1.801-12.337,4.74c-3.276-2.939-7.591-4.74-12.337-4.74
	c-4.746,0-9.062,1.801-12.337,4.74c-3.276-2.939-7.591-4.74-12.337-4.74c-4.746,0-9.062,1.801-12.337,4.74
	c-3.276-2.939-7.591-4.74-12.337-4.74c-4.746,0-9.062,1.801-12.337,4.74c-3.276-2.939-7.591-4.74-12.337-4.74
	c-4.746,0-9.062,1.801-12.337,4.74c-3.276-2.939-7.591-4.74-12.337-4.74s-9.062,1.801-12.337,4.74
	c-3.276-2.939-7.591-4.74-12.337-4.74c-4.746,0-9.062,1.801-12.337,4.74c-3.276-2.939-7.591-4.74-12.337-4.74
	s-9.062,1.801-12.337,4.74c-3.276-2.939-7.591-4.74-12.337-4.74c-10.22,0-18.506,8.285-18.506,18.506
	c0,3.303,0.876,6.397,2.393,9.082c-5.142,3.288-8.562,9.033-8.562,15.591c0,10.22,8.286,18.506,18.506,18.506H471.904z"/>
<path style="fill:#80CB93;" d="M481.848,464.023c1.517-2.685,2.393-5.78,2.393-9.082c0-10.221-8.286-18.506-18.506-18.506
	c-4.746,0-9.062,1.801-12.337,4.74c-3.276-2.939-7.591-4.74-12.337-4.74s-9.062,1.801-12.337,4.74
	c-3.276-2.939-7.591-4.74-12.337-4.74s-9.062,1.801-12.337,4.74c-3.276-2.939-7.591-4.74-12.337-4.74s-9.062,1.801-12.337,4.74
	c-3.276-2.939-7.591-4.74-12.337-4.74c-4.746,0-9.062,1.801-12.337,4.74c-3.276-2.939-7.591-4.74-12.337-4.74
	s-9.062,1.801-12.337,4.74c-3.276-2.939-7.591-4.74-12.337-4.74c-4.746,0-9.062,1.801-12.337,4.74
	c-3.276-2.939-7.591-4.74-12.337-4.74s-9.062,1.801-12.337,4.74c-3.276-2.939-7.591-4.74-12.337-4.74
	c-4.746,0-9.062,1.801-12.337,4.74v56.944h215.904c10.22,0,18.506-8.286,18.506-18.506
	C490.41,473.057,486.99,467.31,481.848,464.023z"/>
<path style="fill:#88888F;" d="M502.747,507.375H9.253c-5.11,0-9.253-4.143-9.253-9.253c0-5.111,4.143-9.253,9.253-9.253h493.494
	c5.11,0,9.253,4.142,9.253,9.253C512,503.232,507.857,507.375,502.747,507.375z"/>
<path style="fill:#797781;" d="M502.747,488.869H256v18.506h246.747c5.11,0,9.253-4.143,9.253-9.253
	C512,493.01,507.857,488.869,502.747,488.869z"/>
<g>
</g>
<g>
</g>
<g>
</g>
<g>
</g>
<g>
</g>
<g>
</g>
<g>
</g>
<g>
</g>
<g>
</g>
<g>
</g>
<g>
</g>
<g>
</g>
<g>
</g>
<g>
</g>
<g>
</g>
</svg>
