<?xml version="1.0" encoding="iso-8859-1"?>
<!-- Generator: Adobe Illustrator 19.0.0, SVG Export Plug-In . SVG Version: 6.00 Build 0)  -->
<svg version="1.1" id="Layer_1" xmlns="http://www.w3.org/2000/svg" xmlns:xlink="http://www.w3.org/1999/xlink" x="0px" y="0px"
	 viewBox="0 0 512 512" style="enable-background:new 0 0 512 512;" xml:space="preserve">
<path style="fill:#6A5740;" d="M345.043,411.826H166.957c-4.61,0-8.348-3.738-8.348-8.348s3.738-8.348,8.348-8.348h178.087
	c4.61,0,8.348,3.738,8.348,8.348C353.391,408.09,349.654,411.826,345.043,411.826z"/>
<path style="fill:#A58868;" d="M256,512c-4.61,0-8.348-3.738-8.348-8.348V358.957c0-4.61,3.738-8.348,8.348-8.348
	s8.348,3.738,8.348,8.348v144.696C264.348,508.262,260.61,512,256,512z"/>
<path style="fill:#B29A7E;" d="M100.174,478.609c-2.136,0-4.273-0.815-5.902-2.445c-3.26-3.26-3.26-8.546,0-11.805l111.304-111.304
	c3.26-3.26,8.546-3.26,11.805,0c3.26,3.26,3.26,8.546,0,11.805L106.076,476.163C104.447,477.794,102.31,478.609,100.174,478.609z"/>
<g>
	<path style="fill:#A58868;" d="M411.826,478.609c-2.136,0-4.273-0.815-5.902-2.445L294.619,364.859c-3.26-3.26-3.26-8.546,0-11.805
		c3.26-3.26,8.546-3.26,11.805,0l111.304,111.304c3.26,3.26,3.26,8.546,0,11.805C416.099,477.794,413.962,478.609,411.826,478.609z"
		/>
	<path style="fill:#A58868;" d="M256,50.087c-4.61,0-8.348-3.738-8.348-8.348V8.348C247.652,3.738,251.39,0,256,0
		s8.348,3.738,8.348,8.348v33.391C264.348,46.349,260.61,50.087,256,50.087z"/>
</g>
<rect x="77.913" y="97.391" style="fill:#7AB9E8;" width="356.174" height="267.13"/>
<rect x="256" y="97.391" style="fill:#61AAE4;" width="178.087" height="267.13"/>
<rect x="133.565" y="320" style="fill:#BFA993;" width="244.87" height="44.522"/>
<rect x="256" y="320" style="fill:#B29A7E;" width="122.435" height="44.522"/>
<rect x="222.609" y="41.739" style="fill:#BFA993;" width="66.783" height="55.652"/>
<rect x="256" y="41.739" style="fill:#B29A7E;" width="33.391" height="55.652"/>
<path style="fill:#F8F8F9;" d="M389.565,133.565h-267.13c-4.61,0-8.348,3.738-8.348,8.348v133.565c0,4.61,3.738,8.348,8.348,8.348
	h267.13c4.61,0,8.348-3.738,8.348-8.348V141.913C397.913,137.303,394.175,133.565,389.565,133.565z M130.783,150.261h172.522v116.87
	h-72.348v-72.348h2.783c4.61,0,8.348-3.738,8.348-8.348c0-4.61-3.738-8.348-8.348-8.348h-22.261c-4.61,0-8.348,3.738-8.348,8.348
	c0,4.61,3.738,8.348,8.348,8.348h2.783v72.348H165.61c3.446-9.717,12.725-16.696,23.608-16.696c4.61,0,8.348-3.738,8.348-8.348
	s-3.738-8.348-8.348-8.348c-20.157,0-37.021,14.363-40.899,33.391h-17.536V150.261z M381.217,267.13H320v-48.651
	c9.716,3.446,16.696,12.725,16.696,23.608c0,4.61,3.738,8.348,8.348,8.348s8.348-3.738,8.348-8.348
	c0-20.157-14.363-37.021-33.391-40.899v-50.927h61.217V267.13z"/>
<path style="fill:#EDEDED;" d="M389.565,133.565H255.999v16.696h47.305v116.87h-47.305v16.696h133.566
	c4.61,0,8.348-3.738,8.348-8.348V141.913C397.913,137.303,394.175,133.565,389.565,133.565z M381.217,267.13H320v-48.651
	c9.716,3.446,16.696,12.725,16.696,23.608c0,4.61,3.738,8.348,8.348,8.348s8.348-3.738,8.348-8.348
	c0-20.157-14.363-37.021-33.391-40.899v-50.927h61.217V267.13z"/>
<g>
</g>
<g>
</g>
<g>
</g>
<g>
</g>
<g>
</g>
<g>
</g>
<g>
</g>
<g>
</g>
<g>
</g>
<g>
</g>
<g>
</g>
<g>
</g>
<g>
</g>
<g>
</g>
<g>
</g>
</svg>
