<?xml version="1.0" encoding="iso-8859-1"?>
<!-- Generator: Adobe Illustrator 19.0.0, SVG Export Plug-In . SVG Version: 6.00 Build 0)  -->
<svg version="1.1" id="Layer_1" xmlns="http://www.w3.org/2000/svg" xmlns:xlink="http://www.w3.org/1999/xlink" x="0px" y="0px"
	 viewBox="0 0 512 512" style="enable-background:new 0 0 512 512;" xml:space="preserve">
<path style="fill:#EDEDED;" d="M355.638,56.678L148.124,264.192l76.857,76.858l207.514-207.514c21.222-21.222,21.222-55.633,0-76.86
	C411.272,35.453,376.861,35.453,355.638,56.678z"/>
<g>
	<path style="fill:#DBDBDB;" d="M224.98,341.05l207.514-207.514c21.222-21.222,21.222-55.633,0-76.86L186.552,302.621L224.98,341.05
		z"/>
	<path style="fill:#DBDBDB;" d="M439.356,184.315l-11.528,11.527c-3.185,3.185-8.345,3.185-11.528,0
		c-3.185-3.185-3.185-8.345,0-11.527l11.528-11.529c3.184-3.185,8.344-3.185,11.528,0
		C442.54,175.971,442.541,181.131,439.356,184.315z M404.771,218.9l-11.529,11.529c-3.184,3.185-8.344,3.185-11.528,0
		s-3.184-8.345,0-11.529l11.528-11.527c3.185-3.185,8.345-3.185,11.529,0C407.955,210.557,407.955,215.718,404.771,218.9z
		 M370.185,253.486l-11.528,11.529c-3.185,3.185-8.345,3.183-11.529,0c-3.185-3.185-3.185-8.345,0-11.529l11.529-11.527
		c3.184-3.185,8.344-3.185,11.528,0C373.368,245.141,373.369,250.301,370.185,253.486z M335.599,288.072l-11.529,11.529
		c-3.184,3.183-8.344,3.183-11.529-0.002c-3.184-3.183-3.184-8.343,0-11.527l11.529-11.529c3.185-3.183,8.345-3.183,11.528,0
		C338.783,279.728,338.783,284.889,335.599,288.072z M301.013,322.657l-11.528,11.529c-3.184,3.185-8.344,3.185-11.528,0
		c-3.185-3.185-3.184-8.345,0-11.529l11.528-11.527c3.184-3.185,8.345-3.185,11.528,0
		C304.198,314.314,304.198,319.475,301.013,322.657z M266.428,357.243l-4.94,4.94c-3.184,3.185-8.344,3.185-11.528,0
		c-3.185-3.185-3.185-8.345,0-11.527l4.94-4.94c3.183-3.185,8.343-3.185,11.528,0C269.611,348.898,269.611,354.061,266.428,357.243z
		 M462.402,161.25c-3.137,3.138-8.222,3.191-11.426,0.098c-3.239-3.127-3.329-8.288-0.201-11.527
		c3.429-3.552,6.531-7.426,9.218-11.519c2.476-3.755,7.526-4.809,11.291-2.337c3.762,2.473,4.809,7.528,2.336,11.29
		c-3.244,4.94-6.986,9.613-11.117,13.892C462.471,161.18,462.437,161.216,462.402,161.25z M484.976,118.596
		c-1.877,1.875-4.633,2.8-7.425,2.221c-4.409-0.913-7.242-5.227-6.328-9.636c0.998-4.813,1.549-9.749,1.635-14.667
		c0.08-4.501,3.792-8.086,8.295-8.007c4.502,0.08,8.086,3.793,8.006,8.297c-0.105,5.934-0.768,11.884-1.971,17.688
		C486.853,116.106,486.06,117.509,484.976,118.596z M481.319,70.477c-0.801,0.8-1.785,1.448-2.916,1.868
		c-4.221,1.573-8.914-0.575-10.486-4.793c-1.717-4.609-3.878-9.074-6.424-13.268c-2.334-3.851-1.104-8.858,2.742-11.199
		c3.85-2.336,8.863-1.109,11.198,2.742c3.076,5.072,5.688,10.466,7.762,16.032C484.346,64.949,483.506,68.29,481.319,70.477z
		 M452.557,31.725c-2.843,2.844-7.424,3.214-10.707,0.704c-3.911-2.989-8.115-5.617-12.5-7.814
		c-4.026-2.016-5.655-6.914-3.639-10.939c2.015-4.027,6.913-5.653,10.939-3.639c5.299,2.653,10.381,5.829,15.101,9.44
		c3.577,2.733,4.26,7.849,1.525,11.426C453.051,31.196,452.811,31.47,452.557,31.725z M407.587,14.255
		c-1.649,1.648-3.987,2.581-6.489,2.359c-4.901-0.435-9.868-0.414-14.762,0.065c-4.481,0.439-8.469-2.836-8.909-7.319
		c-0.438-4.479,2.841-8.468,7.318-8.905c5.901-0.577,11.887-0.605,17.794-0.08c4.485,0.399,7.798,4.356,7.399,8.842
		C409.763,11.199,408.891,12.952,407.587,14.255z M360.206,23.444c-0.587,0.586-1.273,1.093-2.052,1.49
		c-4.364,2.236-8.545,4.904-12.429,7.927c-3.552,2.766-8.674,2.129-11.44-1.424c-2.767-3.552-2.125-8.685,1.424-11.439
		c4.689-3.651,9.74-6.874,15.015-9.574c4.006-2.053,8.918-0.47,10.971,3.539C363.349,17.192,362.64,21.008,360.206,23.444z
		 M322.973,54.754l-11.528,11.529c-3.184,3.185-8.344,3.185-11.528,0c-3.185-3.185-3.185-8.345,0-11.529l11.528-11.527
		c3.185-3.185,8.345-3.185,11.528,0C326.158,46.411,326.158,51.572,322.973,54.754z M288.388,89.34l-11.529,11.529
		c-3.185,3.183-8.345,3.183-11.528,0c-3.185-3.185-3.185-8.345-0.001-11.529l11.528-11.529c3.185-3.183,8.345-3.183,11.53,0.002
		C291.572,80.996,291.572,86.157,288.388,89.34z M253.802,123.927l-11.528,11.527c-3.184,3.185-8.344,3.185-11.529,0
		c-3.185-3.183-3.185-8.343,0-11.527l11.529-11.529c3.184-3.185,8.345-3.185,11.528,0
		C256.987,115.582,256.987,120.743,253.802,123.927z M219.217,158.514l-11.528,11.527c-3.185,3.185-8.345,3.185-11.529,0
		c-3.184-3.185-3.184-8.345-0.001-11.527l11.529-11.529c3.184-3.185,8.344-3.185,11.529,0
		C222.4,150.168,222.4,155.329,219.217,158.514z M184.63,193.097l-11.528,11.529c-3.184,3.183-8.344,3.185-11.528,0
		c-3.185-3.185-3.184-8.345,0-11.529l11.528-11.527c3.184-3.185,8.345-3.185,11.528,0
		C187.815,184.755,187.815,189.916,184.63,193.097z M150.045,227.685l-11.528,11.529c-3.184,3.183-8.345,3.183-11.529,0
		c-3.184-3.185-3.184-8.345,0-11.529l11.529-11.529c3.184-3.183,8.344-3.183,11.529,0.002
		C153.229,219.339,153.229,224.5,150.045,227.685z"/>
</g>
<path style="fill:#EFC27B;" d="M94.322,241.135l-61.485,61.485c-12.734,12.733-12.734,33.381,0,46.114l61.485,61.485l-23.058,23.057
	c-12.733,12.736-12.733,33.381,0.001,46.116l23.057,23.057c12.733,12.733,33.38,12.733,46.113-0.002l107.602-107.599
	c12.733-12.733,12.733-33.381,0-46.114L140.438,241.135C127.703,228.4,107.057,228.4,94.322,241.135z M123.145,473.627
	c3.184,3.185,3.184,8.345,0,11.529c-3.184,3.185-8.344,3.185-11.528,0L88.56,462.099c-3.185-3.185-3.185-8.345-0.001-11.529
	c3.184-3.183,8.344-3.185,11.529,0L123.145,473.627z"/>
<path style="fill:#ECB45C;" d="M86.637,402.536l7.686,7.685l-23.058,23.057c-12.733,12.736-12.733,33.381,0.001,46.116
	l23.057,23.057c12.733,12.733,33.38,12.733,46.113-0.002l107.602-107.599c12.733-12.733,12.733-33.381,0-46.114l-53.8-53.801
	L86.637,402.536z M123.145,473.627c3.184,3.185,3.184,8.345,0,11.529c-3.184,3.185-8.344,3.185-11.528,0L88.56,462.099
	c-3.185-3.185-3.185-8.345-0.001-11.529c3.184-3.183,8.344-3.185,11.529,0L123.145,473.627z"/>
<polygon style="fill:#88888F;" points="171.18,425.593 224.98,371.792 171.18,317.991 148.123,341.05 148.124,402.536 "/>
<path style="fill:#58575D;" d="M153.887,377.557c-1.475,1.476-3.513,2.386-5.764,2.386h-30.743c-4.503,0-8.153-3.649-8.153-8.152
	c0.001-4.501,3.651-8.152,8.152-8.152h30.743c4.503,0,8.152,3.649,8.153,8.154C156.275,374.044,155.363,376.082,153.887,377.557z"/>
<g>
	<path style="fill:#88888F;" d="M117.38,348.267c-4.502,0-8.151,3.651-8.152,8.152v30.744c0,4.503,3.65,8.152,8.153,8.152
		c2.25,0,4.288-0.913,5.764-2.388c1.475-1.476,2.387-3.514,2.388-5.764l-0.001-30.744
		C125.531,351.917,121.883,348.267,117.38,348.267z"/>
	<path style="fill:#88888F;" d="M92.402,254.584c-3.184,3.185-8.344,3.185-11.528,0c-9.535-9.533-25.052-9.533-34.586,0.002
		c-9.535,9.533-9.536,25.048,0,34.584c3.184,3.185,3.184,8.345,0,11.527c-3.184,3.185-8.345,3.185-11.529,0
		c-15.892-15.89-15.892-41.749,0-57.641c15.892-15.892,41.751-15.892,57.643,0C95.587,246.241,95.585,251.401,92.402,254.584z"/>
</g>
<g>
</g>
<g>
</g>
<g>
</g>
<g>
</g>
<g>
</g>
<g>
</g>
<g>
</g>
<g>
</g>
<g>
</g>
<g>
</g>
<g>
</g>
<g>
</g>
<g>
</g>
<g>
</g>
<g>
</g>
</svg>
