<?xml version="1.0" encoding="iso-8859-1"?>
<!-- Generator: Adobe Illustrator 19.0.0, SVG Export Plug-In . SVG Version: 6.00 Build 0)  -->
<svg version="1.1" id="Layer_1" xmlns="http://www.w3.org/2000/svg" xmlns:xlink="http://www.w3.org/1999/xlink" x="0px" y="0px"
	 viewBox="0 0 512 512" style="enable-background:new 0 0 512 512;" xml:space="preserve">
<polygon style="fill:#F8F8F9;" points="358.4,0 51.2,0 51.2,512 460.8,512 460.8,102.4 "/>
<polygon style="fill:#EDEDED;" points="358.4,102.4 358.4,0 256,0 256,512 460.8,512 460.8,102.4 "/>
<path style="fill:#95D5A7;" d="M204.8,124.8h3.2v41.6c0,5.303,4.298,9.6,9.6,9.6h76.8c5.302,0,9.6-4.297,9.6-9.6v-41.6h3.2
	c3.884,0,7.383-2.339,8.869-5.926c1.486-3.588,0.664-7.716-2.081-10.463l-51.2-51.2c-3.749-3.748-9.828-3.748-13.576,0L227.2,79.223
	V76.8c0-5.303-4.298-9.6-9.6-9.6s-9.6,4.297-9.6,9.6v21.623l-9.988,9.989c-2.746,2.747-3.567,6.875-2.081,10.463
	C197.417,122.461,200.916,124.8,204.8,124.8z"/>
<g>
	<path style="fill:#88888F;" d="M128,240h243.2c5.302,0,9.6-4.297,9.6-9.6c0-5.303-4.298-9.6-9.6-9.6H128
		c-5.302,0-9.6,4.297-9.6,9.6C118.4,235.703,122.698,240,128,240z"/>
	<path style="fill:#88888F;" d="M128,278.4h256c5.302,0,9.6-4.297,9.6-9.6s-4.298-9.6-9.6-9.6H128c-5.302,0-9.6,4.297-9.6,9.6
		S122.698,278.4,128,278.4z"/>
	<path style="fill:#88888F;" d="M128,316.8h128c5.302,0,9.6-4.297,9.6-9.6c0-5.303-4.298-9.6-9.6-9.6H128
		c-5.302,0-9.6,4.297-9.6,9.6C118.4,312.503,122.698,316.8,128,316.8z"/>
	<path style="fill:#88888F;" d="M128,368h243.2c5.302,0,9.6-4.297,9.6-9.6s-4.298-9.6-9.6-9.6H128c-5.302,0-9.6,4.297-9.6,9.6
		S122.698,368,128,368z"/>
	<path style="fill:#88888F;" d="M384,387.2H128c-5.302,0-9.6,4.297-9.6,9.6s4.298,9.6,9.6,9.6h256c5.302,0,9.6-4.297,9.6-9.6
		S389.302,387.2,384,387.2z"/>
	<path style="fill:#88888F;" d="M256,425.6H128c-5.302,0-9.6,4.297-9.6,9.6c0,5.303,4.298,9.6,9.6,9.6h128
		c5.302,0,9.6-4.297,9.6-9.6C265.6,429.897,261.302,425.6,256,425.6z"/>
</g>
<path style="fill:#80CB93;" d="M304,166.4v-41.6h3.2c3.884,0,7.383-2.339,8.869-5.926c1.486-3.588,0.664-7.716-2.081-10.463
	l-51.2-51.2c-1.874-1.874-4.332-2.811-6.788-2.811V176h38.4C299.702,176,304,171.703,304,166.4z"/>
<g>
	<path style="fill:#797781;" d="M380.8,230.4c0-5.303-4.298-9.6-9.6-9.6H256V240h115.2C376.502,240,380.8,235.703,380.8,230.4z"/>
	<path style="fill:#797781;" d="M393.6,268.8c0-5.303-4.298-9.6-9.6-9.6H256v19.2h128C389.302,278.4,393.6,274.103,393.6,268.8z"/>
	<path style="fill:#797781;" d="M265.6,307.2c0-5.303-4.298-9.6-9.6-9.6v19.2C261.302,316.8,265.6,312.503,265.6,307.2z"/>
	<path style="fill:#797781;" d="M380.8,358.4c0-5.303-4.298-9.6-9.6-9.6H256V368h115.2C376.502,368,380.8,363.703,380.8,358.4z"/>
	<path style="fill:#797781;" d="M384,387.2H256v19.2h128c5.302,0,9.6-4.297,9.6-9.6S389.302,387.2,384,387.2z"/>
	<path style="fill:#797781;" d="M265.6,435.2c0-5.303-4.298-9.6-9.6-9.6v19.2C261.302,444.8,265.6,440.503,265.6,435.2z"/>
</g>
<g>
</g>
<g>
</g>
<g>
</g>
<g>
</g>
<g>
</g>
<g>
</g>
<g>
</g>
<g>
</g>
<g>
</g>
<g>
</g>
<g>
</g>
<g>
</g>
<g>
</g>
<g>
</g>
<g>
</g>
</svg>
