<?xml version="1.0" encoding="iso-8859-1"?>
<!-- Generator: Adobe Illustrator 19.0.0, SVG Export Plug-In . SVG Version: 6.00 Build 0)  -->
<svg version="1.1" id="Layer_1" xmlns="http://www.w3.org/2000/svg" xmlns:xlink="http://www.w3.org/1999/xlink" x="0px" y="0px"
	 viewBox="0 0 512 512" style="enable-background:new 0 0 512 512;" xml:space="preserve">
<polygon style="fill:#EDEDED;" points="347.722,268.321 128.684,82.139 150.588,60.235 413.433,202.61 "/>
<polygon style="fill:#DBDBDB;" points="413.433,202.61 260.107,119.557 260.107,193.848 347.722,268.321 "/>
<polygon style="fill:#797781;" points="435.337,361.412 30.118,361.412 30.118,410.695 479.144,410.695 "/>
<polygon style="fill:#61AAE4;" points="435.337,202.61 347.722,290.225 347.722,366.888 512,366.888 512,202.61 "/>
<polygon style="fill:#58575D;" points="446.289,366.888 292.963,366.888 249.155,410.695 479.144,410.695 "/>
<rect x="172.492" y="334.032" style="fill:#797781;" width="98.567" height="32.856"/>
<g>
	<rect x="128.684" y="301.176" style="fill:#88888F;" width="54.759" height="65.711"/>
	<circle style="fill:#88888F;" cx="90.353" cy="416.171" r="49.283"/>
</g>
<path style="fill:#EDEDED;" d="M90.353,429.861c-7.549,0-13.69-6.141-13.69-13.69s6.141-13.69,13.69-13.69s13.69,6.141,13.69,13.69
	S97.902,429.861,90.353,429.861z"/>
<polygon style="fill:#F8F8F9;" points="95.829,180.706 8.214,268.32 8.214,410.695 30.118,410.695 62.973,366.888 139.636,366.888 
	139.636,180.706 "/>
<polygon style="fill:#D1E5F5;" points="95.829,180.706 62.973,180.706 8.214,235.464 8.214,268.321 95.829,268.321 "/>
<path style="fill:#88888F;" d="M95.829,309.39H62.973c-4.537,0-8.214-3.678-8.214-8.214s3.677-8.214,8.214-8.214h32.856
	c4.537,0,8.214,3.678,8.214,8.214S100.366,309.39,95.829,309.39z"/>
<polygon style="fill:#B4D8F1;" points="8.214,268.321 95.829,268.321 95.829,180.706 8.214,268.32 "/>
<path style="fill:#88888F;" d="M76.663,375.102H8.214c-4.537,0-8.214-3.678-8.214-8.214c0-4.536,3.677-8.214,8.214-8.214h68.449
	c4.537,0,8.214,3.678,8.214,8.214C84.877,371.424,81.2,375.102,76.663,375.102z"/>
<circle style="fill:#797781;" cx="320.342" cy="416.171" r="49.283"/>
<path style="fill:#DBDBDB;" d="M320.342,429.861c-7.549,0-13.69-6.141-13.69-13.69s6.141-13.69,13.69-13.69s13.69,6.141,13.69,13.69
	S327.891,429.861,320.342,429.861z"/>
<circle style="fill:#797781;" cx="418.909" cy="416.171" r="49.283"/>
<path style="fill:#DBDBDB;" d="M418.909,429.861c-7.549,0-13.69-6.141-13.69-13.69s6.141-13.69,13.69-13.69s13.69,6.141,13.69,13.69
	S426.458,429.861,418.909,429.861z"/>
<path style="fill:#88888F;" d="M468.193,473.668H41.07c-4.537,0-8.214-3.678-8.214-8.214s3.677-8.214,8.214-8.214h427.123
	c4.537,0,8.214,3.678,8.214,8.214S472.73,473.668,468.193,473.668z"/>
<path style="fill:#797781;" d="M468.193,457.241H271.059v16.428h197.134c4.537,0,8.214-3.678,8.214-8.214
	S472.73,457.241,468.193,457.241z"/>
<path style="fill:#58575D;" d="M435.337,331.294h-32.856c-4.537,0-8.214-3.678-8.214-8.214c0-4.536,3.677-8.214,8.214-8.214h32.856
	c4.537,0,8.214,3.678,8.214,8.214C443.551,327.616,439.874,331.294,435.337,331.294z"/>
<circle style="fill:#DBDBDB;" cx="128.684" cy="60.235" r="21.904"/>
<path style="fill:#58575D;" d="M495.905,404.887l-43.807-43.807c-1.541-1.541-3.629-2.406-5.809-2.406h-98.567h-54.759h-68.449
	V235.465c0-4.536-3.677-8.214-8.214-8.214s-8.214,3.678-8.214,8.214v131.422c0,4.536,3.677,8.214,8.214,8.214h56.834l-29.785,29.786
	c-3.209,3.208-3.209,8.409,0,11.616c3.207,3.208,8.409,3.208,11.614,0l41.402-41.401h51.357h95.165l41.401,41.401
	c1.604,1.603,3.707,2.406,5.809,2.406c2.102,0,4.204-0.802,5.809-2.406C499.112,413.296,499.112,408.094,495.905,404.887z"/>
<path style="fill:#EDEDED;" d="M135.783,119.111c0.705-1.211,1.115-2.615,1.115-4.117V60.235c0-4.536-3.677-8.214-8.214-8.214
	c-4.537,0-8.214,3.678-8.214,8.214v54.759c0,2.107,0.799,4.022,2.104,5.476c-1.303,1.454-2.104,3.369-2.104,5.476
	c0,4.536,3.677,8.214,8.214,8.214c1.51,0,2.738,1.229,2.738,2.738c0,1.509-1.228,2.738-2.738,2.738
	c-4.537,0-8.214,3.678-8.214,8.214c0,4.536,3.677,8.214,8.214,8.214c10.567,0,19.166-8.598,19.166-19.166
	C147.85,128.84,142.845,121.94,135.783,119.111z"/>
<polygon style="fill:#D1E5F5;" points="435.337,202.61 391.529,202.61 347.722,246.417 347.722,290.225 435.337,290.225 "/>
<polygon style="fill:#B4D8F1;" points="435.337,290.225 435.337,202.61 347.722,290.225 "/>
<path style="fill:#49484C;" d="M495.905,404.887l-43.807-43.807c-1.541-1.541-3.629-2.406-5.809-2.406h-98.567h-54.759h-32.856
	v16.428h13.026l-13.026,13.026v23.231l36.257-36.257h51.358h95.165l41.401,41.401c1.604,1.603,3.707,2.406,5.809,2.406
	c2.102,0,4.204-0.802,5.809-2.406C499.112,413.296,499.112,408.094,495.905,404.887z"/>
<g>
</g>
<g>
</g>
<g>
</g>
<g>
</g>
<g>
</g>
<g>
</g>
<g>
</g>
<g>
</g>
<g>
</g>
<g>
</g>
<g>
</g>
<g>
</g>
<g>
</g>
<g>
</g>
<g>
</g>
</svg>
