<?xml version="1.0" encoding="iso-8859-1"?>
<!-- Generator: Adobe Illustrator 19.0.0, SVG Export Plug-In . SVG Version: 6.00 Build 0)  -->
<svg version="1.1" id="Layer_1" xmlns="http://www.w3.org/2000/svg" xmlns:xlink="http://www.w3.org/1999/xlink" x="0px" y="0px"
	 viewBox="0 0 512 512" style="enable-background:new 0 0 512 512;" xml:space="preserve">
<path style="fill:#88888F;" d="M256,76c-4.418,0-8-3.581-8-8c0-27.937,22.73-50.667,50.667-50.667h42.667c4.418,0,8,3.581,8,8
	s-3.582,8-8,8h-42.667C279.552,33.333,264,48.884,264,68C264,72.419,260.418,76,256,76z"/>
<rect x="240" y="420" style="fill:#EDEDED;" width="32" height="74.667"/>
<rect x="256" y="420" style="fill:#DBDBDB;" width="16" height="74.667"/>
<rect x="224" y="388" style="fill:#88888F;" width="64" height="42.667"/>
<rect x="256" y="388" style="fill:#797781;" width="32" height="42.667"/>
<path style="fill:#58575D;" d="M490.667,89.333h-64V132h64c11.782,0,21.333-9.551,21.333-21.333S502.449,89.333,490.667,89.333z"/>
<path style="fill:#797781;" d="M21.333,89.333C9.551,89.333,0,98.884,0,110.667S9.551,132,21.333,132h64V89.333H21.333z"/>
<rect x="394.667" y="78.667" style="fill:#F6E27D;" width="42.667" height="64"/>
<g>
	<rect x="74.667" y="78.667" style="fill:#F8E99B;" width="42.667" height="64"/>
	<rect x="181.333" y="153.333" style="fill:#F8E99B;" width="149.333" height="202.667"/>
</g>
<rect x="256" y="153.333" style="fill:#F6E27D;" width="74.667" height="202.667"/>
<g>
	<path style="fill:#797781;" d="M106.667,68v85.333h74.667c0,29.455,23.878,53.333,53.333,53.333h42.667
		c29.456,0,53.333-33.567,53.333-53.333h74.667V68H106.667z"/>
	<path style="fill:#797781;" d="M181.333,345.333V356c0,23.565,33.429,42.667,74.667,42.667c41.237,0,74.667-19.102,74.667-42.667
		v-10.667H181.333z"/>
</g>
<g>
	<path style="fill:#58575D;" d="M256,68v138.667h21.333c29.456,0,53.333-33.567,53.333-53.333h74.667V68H256z"/>
	<path style="fill:#58575D;" d="M330.667,356v-10.667H256v53.333C297.237,398.667,330.667,379.565,330.667,356z"/>
</g>
<path style="fill:#88888F;" d="M352,118.667H160c-4.418,0-8-3.581-8-8s3.582-8,8-8h192c4.418,0,8,3.581,8,8
	S356.418,118.667,352,118.667z"/>
<path style="fill:#797781;" d="M352,102.667h-96v16h96c4.418,0,8-3.581,8-8S356.418,102.667,352,102.667z"/>
<g>
</g>
<g>
</g>
<g>
</g>
<g>
</g>
<g>
</g>
<g>
</g>
<g>
</g>
<g>
</g>
<g>
</g>
<g>
</g>
<g>
</g>
<g>
</g>
<g>
</g>
<g>
</g>
<g>
</g>
</svg>
