<?xml version="1.0" encoding="iso-8859-1"?>
<!-- Generator: Adobe Illustrator 19.0.0, SVG Export Plug-In . SVG Version: 6.00 Build 0)  -->
<svg version="1.1" id="Layer_1" xmlns="http://www.w3.org/2000/svg" xmlns:xlink="http://www.w3.org/1999/xlink" x="0px" y="0px"
	 viewBox="0 0 512 512" style="enable-background:new 0 0 512 512;" xml:space="preserve">
<rect x="220.279" y="392.93" style="fill:#EDEDED;" width="71.442" height="119.07"/>
<rect x="256" y="392.93" style="fill:#DBDBDB;" width="35.721" height="119.07"/>
<path style="fill:#797781;" d="M452.664,319.749h0.002l-0.025-0.05c-0.167-0.348-0.344-0.687-0.517-1.03L309.977,34.417
	C300.504,14.093,279.902,0,256,0s-44.504,14.093-53.977,34.417L59.874,318.669c-0.173,0.343-0.35,0.683-0.517,1.03l-0.025,0.05
	h0.002c-3.685,7.744-5.753,16.405-5.753,25.554c0,32.88,26.655,59.535,59.535,59.535H256h142.884
	c32.88,0,59.535-26.655,59.535-59.535C458.419,336.154,456.35,327.493,452.664,319.749z"/>
<path style="fill:#58575D;" d="M452.664,319.749h0.002l-0.025-0.05c-0.167-0.348-0.344-0.687-0.517-1.03L309.977,34.417
	C300.504,14.093,279.902,0,256,0v404.837h142.884c32.88,0,59.535-26.655,59.535-59.535
	C458.419,336.154,456.35,327.493,452.664,319.749z"/>
<path style="fill:#F8E99B;" d="M256,53.581c3.61,0,5.141,2.892,5.412,3.472c0.208,0.447,0.422,0.889,0.642,1.329l142.149,284.252
	c0.013,0.027,0.026,0.052,0.039,0.079l0.123,0.244c0.318,0.729,0.473,1.498,0.473,2.346c0,3.283-2.671,5.953-5.953,5.953H256
	H113.116c-3.283,0-5.953-2.671-5.953-5.953c0-0.847,0.155-1.616,0.472-2.346l0.124-0.244c0.013-0.026,0.026-0.052,0.039-0.079
	L249.946,58.382c0.22-0.439,0.433-0.882,0.642-1.329C250.859,56.474,252.39,53.581,256,53.581"/>
<path style="fill:#F6E27D;" d="M404.365,342.957l-0.123-0.244c-0.013-0.026-0.026-0.052-0.039-0.079L262.053,58.382
	c-0.22-0.439-0.433-0.882-0.642-1.329c-0.27-0.58-1.802-3.472-5.412-3.472v297.674h142.884c3.283,0,5.953-2.671,5.953-5.953
	C404.837,344.456,404.682,343.687,404.365,342.957z"/>
<path style="fill:#797781;" d="M258.491,318.512c-2.83,0-5.559-1.349-7.268-3.74l-48.71-68.195
	c-1.946-2.722-2.205-6.302-0.674-9.277c1.531-2.974,4.595-4.844,7.941-4.844h24.519l-13.023-26.044
	c-1.385-2.768-1.236-6.056,0.391-8.689c1.626-2.633,4.501-4.235,7.597-4.235h58.454c4.365,0,8.091,3.155,8.809,7.462l9.742,58.453
	c0.431,2.59-0.299,5.237-1.996,7.241c-1.697,2.003-4.189,3.158-6.814,3.158h-30.039v39.78c0,3.882-2.508,7.319-6.205,8.504
	C260.316,318.374,259.399,318.512,258.491,318.512z"/>
<path style="fill:#58575D;" d="M306.268,259.403l-9.742-58.453c-0.719-4.307-4.444-7.462-8.809-7.462H256v124.654
	c0.806,0.235,1.642,0.37,2.491,0.37c0.909,0,1.825-0.139,2.724-0.426c3.697-1.185,6.205-4.622,6.205-8.504v-39.78h30.039
	c2.625,0,5.118-1.155,6.814-3.158C305.969,264.64,306.699,261.993,306.268,259.403z"/>
<g>
</g>
<g>
</g>
<g>
</g>
<g>
</g>
<g>
</g>
<g>
</g>
<g>
</g>
<g>
</g>
<g>
</g>
<g>
</g>
<g>
</g>
<g>
</g>
<g>
</g>
<g>
</g>
<g>
</g>
</svg>
