<?xml version="1.0" encoding="iso-8859-1"?>
<!-- Generator: Adobe Illustrator 19.0.0, SVG Export Plug-In . SVG Version: 6.00 Build 0)  -->
<svg version="1.1" id="Layer_1" xmlns="http://www.w3.org/2000/svg" xmlns:xlink="http://www.w3.org/1999/xlink" x="0px" y="0px"
	 viewBox="0 0 512 512" style="enable-background:new 0 0 512 512;" xml:space="preserve">
<path style="fill:#F8E99B;" d="M447.297,88.615H64.703c-18.644,0-33.758,15.115-33.758,33.758v292.571h45.011v-78.769h360.088
	v78.769h45.011V122.374C481.055,103.73,465.94,88.615,447.297,88.615z M436.044,291.165H75.956V133.626h360.088V291.165z"/>
<path style="fill:#F6E27D;" d="M447.297,88.615H256v45.011h180.044v157.538H256v45.011h180.044v78.769h45.011V122.374
	C481.055,103.73,465.94,88.615,447.297,88.615z"/>
<path style="fill:#88888F;" d="M503.56,423.385H8.44c-4.661,0-8.44-3.778-8.44-8.44s3.779-8.44,8.44-8.44H503.56
	c4.661,0,8.44,3.778,8.44,8.44S508.221,423.385,503.56,423.385z"/>
<g>
	<path style="fill:#F6E27D;" d="M120.967,299.604c-4.661,0-8.44-3.778-8.44-8.44V133.626c0-4.662,3.779-8.44,8.44-8.44
		c4.661,0,8.44,3.778,8.44,8.44v157.538C129.407,295.827,125.628,299.604,120.967,299.604z"/>
	<path style="fill:#F6E27D;" d="M75.956,299.604c-4.661,0-8.44-3.778-8.44-8.44V133.626c0-4.662,3.779-8.44,8.44-8.44
		s8.44,3.778,8.44,8.44v157.538C84.396,295.827,80.617,299.604,75.956,299.604z"/>
	<path style="fill:#F6E27D;" d="M165.978,299.604c-4.661,0-8.44-3.778-8.44-8.44V133.626c0-4.662,3.779-8.44,8.44-8.44
		s8.44,3.778,8.44,8.44v157.538C174.418,295.827,170.639,299.604,165.978,299.604z"/>
	<path style="fill:#F6E27D;" d="M210.989,187.077c-4.661,0-8.44-3.778-8.44-8.44v-45.011c0-4.662,3.779-8.44,8.44-8.44
		c4.661,0,8.44,3.778,8.44,8.44v45.011C219.429,183.299,215.65,187.077,210.989,187.077z"/>
	<path style="fill:#F6E27D;" d="M256,187.077c-4.661,0-8.44-3.778-8.44-8.44v-45.011c0-4.662,3.779-8.44,8.44-8.44
		c4.661,0,8.44,3.778,8.44,8.44v45.011C264.44,183.299,260.661,187.077,256,187.077z"/>
</g>
<path style="fill:#EFC27B;" d="M301.011,187.077c-4.661,0-8.44-3.778-8.44-8.44v-45.011c0-4.662,3.779-8.44,8.44-8.44
	c4.661,0,8.44,3.778,8.44,8.44v45.011C309.451,183.299,305.672,187.077,301.011,187.077z"/>
<g>
	<path style="fill:#F6E27D;" d="M210.989,299.604c-4.661,0-8.44-3.778-8.44-8.44v-45.011c0-4.662,3.779-8.44,8.44-8.44
		c4.661,0,8.44,3.778,8.44,8.44v45.011C219.429,295.827,215.65,299.604,210.989,299.604z"/>
	<path style="fill:#F6E27D;" d="M256,299.604c-4.661,0-8.44-3.778-8.44-8.44v-45.011c0-4.662,3.779-8.44,8.44-8.44
		c4.661,0,8.44,3.778,8.44,8.44v45.011C264.44,295.827,260.661,299.604,256,299.604z"/>
</g>
<g>
	<path style="fill:#EFC27B;" d="M301.011,299.604c-4.661,0-8.44-3.778-8.44-8.44v-45.011c0-4.662,3.779-8.44,8.44-8.44
		c4.661,0,8.44,3.778,8.44,8.44v45.011C309.451,295.827,305.672,299.604,301.011,299.604z"/>
	<path style="fill:#EFC27B;" d="M346.022,299.604c-4.661,0-8.44-3.778-8.44-8.44V133.626c0-4.662,3.779-8.44,8.44-8.44
		s8.44,3.778,8.44,8.44v157.538C354.462,295.827,350.683,299.604,346.022,299.604z"/>
	<path style="fill:#EFC27B;" d="M391.033,299.604c-4.661,0-8.44-3.778-8.44-8.44V133.626c0-4.662,3.779-8.44,8.44-8.44
		s8.44,3.778,8.44,8.44v157.538C399.473,295.827,395.694,299.604,391.033,299.604z"/>
	<path style="fill:#EFC27B;" d="M436.044,299.604c-4.661,0-8.44-3.778-8.44-8.44V133.626c0-4.662,3.779-8.44,8.44-8.44
		s8.44,3.778,8.44,8.44v157.538C444.484,295.827,440.705,299.604,436.044,299.604z"/>
	<path style="fill:#EFC27B;" d="M264.44,178.637v-45.011c0-4.662-3.779-8.44-8.44-8.44v61.89
		C260.661,187.077,264.44,183.299,264.44,178.637z"/>
	<path style="fill:#EFC27B;" d="M264.44,291.165v-45.011c0-4.662-3.779-8.44-8.44-8.44v61.89
		C260.661,299.604,264.44,295.827,264.44,291.165z"/>
</g>
<rect x="199.736" y="178.637" style="fill:#F8E99B;" width="112.527" height="67.516"/>
<rect x="256" y="178.637" style="fill:#F6E27D;" width="56.264" height="67.516"/>
<path style="fill:#797781;" d="M503.56,406.506H256v16.879h247.56c4.661,0,8.44-3.778,8.44-8.44S508.221,406.506,503.56,406.506z"/>
<g>
</g>
<g>
</g>
<g>
</g>
<g>
</g>
<g>
</g>
<g>
</g>
<g>
</g>
<g>
</g>
<g>
</g>
<g>
</g>
<g>
</g>
<g>
</g>
<g>
</g>
<g>
</g>
<g>
</g>
</svg>
