<?xml version="1.0" encoding="iso-8859-1"?>
<!-- Generator: Adobe Illustrator 19.0.0, SVG Export Plug-In . SVG Version: 6.00 Build 0)  -->
<svg version="1.1" id="Layer_1" xmlns="http://www.w3.org/2000/svg" xmlns:xlink="http://www.w3.org/1999/xlink" x="0px" y="0px"
	 viewBox="0 0 512 512" style="enable-background:new 0 0 512 512;" xml:space="preserve">
<path style="fill:#F4D8AA;" d="M455.958,212.889c-18.145,22.682-31.523,42.003-67.868,83.538
	c-12.792,14.618-32.797,24.269-55.781,30.644c36.871-17.054,16.545-61.993-20.669-43.822c-22.356,10.916-46.77,9.468-69.022,9.468
	s-42.557-20.027-75.935-20.027s-66.756,33.378-66.756,33.378v119.048c103.471,15.576,178.787,7.259,244.771-7.786
	c31.709-7.232,94.786-73.283,130.173-138.333c15.81-29.063,33.934-55.26,36.716-64.717
	C515.243,201.848,469.309,196.2,455.958,212.889z"/>
<path style="fill:#EFC27B;" d="M455.958,212.889c-18.145,22.682-31.523,42.003-67.868,83.538
	c-12.792,14.618-32.797,24.269-55.781,30.644c36.871-17.054,16.545-61.993-20.669-43.822c-17.982,8.779-37.294,9.562-55.743,9.53
	v138.609c32.131-2.689,61.283-7.784,88.802-14.059c31.709-7.232,94.786-73.283,130.173-138.333
	c15.81-29.063,33.934-55.26,36.716-64.717C515.243,201.848,469.309,196.2,455.958,212.889z"/>
<path style="fill:#F8E99B;" d="M369.976,75.962c-19.553-19.552-51.253-19.553-70.807,0c-15.414,15.414-18.665,38.371-9.779,56.98
	l-64.961,64.961v31.469h31.47v-15.735l15.734,0.001v-15.735h15.734v-15.734h15.735l21.7-21.7
	c15.837,3.135,32.897-1.427,45.174-13.702C389.528,127.213,389.527,95.513,369.976,75.962z M334.571,125.272
	c-7.666,0-13.904-6.237-13.906-13.904c0.002-7.674,6.242-13.911,13.909-13.911c7.666,0,13.905,6.237,13.907,13.904
	C348.479,119.035,342.238,125.272,334.571,125.272z"/>
<path style="fill:#F7E3C6;" d="M456.163,212.889c-18.145,22.682-31.523,42.003-67.868,83.538
	c-36.633,41.866-132.399,43.02-188.028,43.02H100.133v85.67c103.471,15.576,178.787,7.259,244.771-7.786
	c31.709-7.232,94.786-73.283,130.173-138.333c15.81-29.063,33.934-55.26,36.716-64.717
	C515.449,201.848,469.515,196.2,456.163,212.889z"/>
<rect y="283.813" style="fill:#F8F8F9;" width="111.259" height="166.889"/>
<path style="fill:#88888F;" d="M55.629,381.168c-7.666,0-13.904-6.237-13.906-13.904c0.002-7.674,6.242-13.911,13.909-13.911
	c7.666,0,13.905,6.237,13.907,13.904C69.536,374.931,63.295,381.168,55.629,381.168z"/>
<path style="fill:#F6E27D;" d="M369.976,75.962c-19.553-19.552-51.253-19.553-70.807,0c-15.414,15.414-18.665,38.371-9.779,56.98
	l-33.495,33.496v62.933h0.003v-15.735l15.734,0.001v-15.735h15.734v-15.734h15.735l21.7-21.7
	c15.837,3.135,32.897-1.427,45.174-13.702C389.528,127.213,389.527,95.513,369.976,75.962z M334.571,125.272
	c-7.666,0-13.904-6.237-13.906-13.904c0.002-7.674,6.242-13.911,13.909-13.911c7.666,0,13.905,6.237,13.907,13.904
	C348.479,119.035,342.238,125.272,334.571,125.272z"/>
<path style="fill:#F4D8AA;" d="M456.163,212.889c-18.145,22.682-31.523,42.003-67.868,83.538
	c-26.091,29.819-82.18,38.982-132.399,41.788v93.192c32.211-2.685,61.431-7.788,89.007-14.075
	c31.709-7.232,94.786-73.283,130.173-138.333c15.81-29.063,33.934-55.26,36.716-64.717
	C515.449,201.848,469.515,196.2,456.163,212.889z"/>
<g>
</g>
<g>
</g>
<g>
</g>
<g>
</g>
<g>
</g>
<g>
</g>
<g>
</g>
<g>
</g>
<g>
</g>
<g>
</g>
<g>
</g>
<g>
</g>
<g>
</g>
<g>
</g>
<g>
</g>
</svg>
