<?xml version="1.0" encoding="iso-8859-1"?>
<!-- Generator: Adobe Illustrator 19.0.0, SVG Export Plug-In . SVG Version: 6.00 Build 0)  -->
<svg version="1.1" id="Layer_1" xmlns="http://www.w3.org/2000/svg" xmlns:xlink="http://www.w3.org/1999/xlink" x="0px" y="0px"
	 viewBox="0 0 512 512" style="enable-background:new 0 0 512 512;" xml:space="preserve">
<polygon style="fill:#EDEDED;" points="399.349,60.659 0,460.008 0.737,511.265 51.992,512 451.342,112.651 "/>
<g>
	<polygon style="fill:#DBDBDB;" points="451.342,112.651 425.346,86.655 0.737,511.265 51.992,512 	"/>
	<path style="fill:#DBDBDB;" d="M382.018,8.667L382.018,8.667c-14.358,14.357-14.358,37.635,0,51.992l69.324,69.324
		c14.357,14.357,37.636,14.357,51.992-0.001v0.001l8.665-8.665L390.684,0L382.018,8.667z"/>
</g>
<path style="fill:#CCCCCE;" d="M451.342,60.659l-34.662,34.662l34.662,34.662c14.357,14.358,37.636,14.358,51.992,0l0,0l8.665-8.664
	L451.342,60.659z"/>
<g>
</g>
<g>
</g>
<g>
</g>
<g>
</g>
<g>
</g>
<g>
</g>
<g>
</g>
<g>
</g>
<g>
</g>
<g>
</g>
<g>
</g>
<g>
</g>
<g>
</g>
<g>
</g>
<g>
</g>
</svg>
