<?xml version="1.0" encoding="iso-8859-1"?>
<!-- Generator: Adobe Illustrator 19.0.0, SVG Export Plug-In . SVG Version: 6.00 Build 0)  -->
<svg version="1.1" id="Layer_1" xmlns="http://www.w3.org/2000/svg" xmlns:xlink="http://www.w3.org/1999/xlink" x="0px" y="0px"
	 viewBox="0 0 512 512" style="enable-background:new 0 0 512 512;" xml:space="preserve">
<path style="fill:#BFA993;" d="M180.073,137.627l-40.48,40.479c-13.415,13.415-13.415,35.163-0.001,48.578l48.575,48.573
	L10.06,453.364c-13.413,13.413-13.412,35.159,0,48.574c13.413,13.414,35.162,13.416,48.574,0L236.742,323.83l48.575,48.575
	c13.414,13.413,35.162,13.413,48.575,0l40.479-40.481L180.073,137.627z M24.23,487.775c-0.002-0.002-0.003-0.003-0.006-0.005
	c-5.577-5.58-5.575-14.661,0.003-20.238c5.579-5.58,14.658-5.581,20.238-0.002c5.581,5.581,5.583,14.66,0.006,20.24
	C38.887,493.349,29.808,493.349,24.23,487.775z"/>
<path style="fill:#B29A7E;" d="M277.222,234.777L44.468,467.532c5.578,5.581,5.579,14.657,0.003,20.238
	c-5.584,5.579-14.663,5.579-20.241,0.005c-0.001-0.001-0.001-0.001-0.001-0.001L10.061,501.94
	c13.414,13.413,35.162,13.414,48.573-0.001L236.742,323.83l48.575,48.575c13.414,13.413,35.162,13.413,48.575,0l40.479-40.481
	L277.222,234.777z"/>
<polygon style="fill:#EBE4DD;" points="511.999,194.299 487.711,170.012 341.987,24.287 317.7,0.001 196.263,121.435 
	390.564,315.735 "/>
<polygon style="fill:#D8CCBC;" points="511.999,194.299 499.855,182.155 426.993,109.295 414.85,97.149 293.413,218.585 
	390.564,315.735 "/>
<rect x="242.87" y="97.385" transform="matrix(-0.7071 0.7071 -0.7071 -0.7071 639.249 204.7625)" style="fill:#EDEDED;" width="68.694" height="274.777"/>
<rect x="291.454" y="214.659" transform="matrix(-0.7071 0.7071 -0.7071 -0.7071 756.5375 253.3377)" style="fill:#DBDBDB;" width="68.694" height="137.389"/>
<rect x="253.167" y="87.088" transform="matrix(-0.7071 -0.7071 0.7071 -0.7071 580.8519 483.468)" style="fill:#7AB9E8;" width="274.777" height="68.694"/>
<rect x="370.44" y="135.656" transform="matrix(-0.7071 -0.7071 0.7071 -0.7071 629.4385 600.7288)" style="fill:#61AAE4;" width="137.389" height="68.694"/>
<path style="fill:#4A82CA;" d="M493.782,176.084c3.355-3.355,3.355-8.791,0-12.144c-3.355-3.353-8.791-3.353-12.143,0
	l-48.574,48.574l12.144,12.144L493.782,176.084z"/>
<g>
	<path style="fill:#B29A7E;" d="M433.065,212.514l-48.575,48.575c-3.353,3.353-3.353,8.791,0,12.144
		c3.355,3.355,8.791,3.355,12.144,0l48.574-48.574L433.065,212.514z"/>
	<path style="fill:#B29A7E;" d="M368.299,228.704c-3.353,3.353-3.355,8.791,0,12.143c3.352,3.355,8.791,3.355,12.143,0
		l40.477-40.477l-12.142-12.143L368.299,228.704z"/>
</g>
<g>
	<path style="fill:#4A82CA;" d="M469.495,139.653c-3.352-3.353-8.791-3.353-12.142,0l-48.574,48.574l12.142,12.143l48.574-48.574
		C472.85,148.445,472.85,143.007,469.495,139.653z"/>
	<path style="fill:#4A82CA;" d="M445.208,115.364c-3.353-3.353-8.79-3.353-12.144,0l-48.575,48.575l12.144,12.143l48.574-48.575
		C448.563,124.155,448.563,118.719,445.208,115.364z"/>
</g>
<path style="fill:#B29A7E;" d="M335.917,212.514c-3.355,3.355-3.355,8.791-0.001,12.143c3.355,3.353,8.791,3.353,12.144,0
	l48.574-48.574l-12.144-12.143L335.917,212.514z"/>
<path style="fill:#4A82CA;" d="M420.92,91.078c-3.353-3.355-8.79-3.355-12.143,0l-48.574,48.574l12.143,12.144l48.574-48.574
	C424.274,99.868,424.274,94.431,420.92,91.078z"/>
<g>
	<path style="fill:#BFA993;" d="M319.723,180.132c-3.353,3.353-3.353,8.79,0,12.142c3.355,3.355,8.791,3.355,12.144,0l40.477-40.477
		l-12.143-12.144L319.723,180.132z"/>
	<path style="fill:#BFA993;" d="M287.341,163.938c-3.355,3.355-3.355,8.791,0,12.144c3.355,3.355,8.791,3.355,12.143,0
		l48.574-48.574l-12.144-12.143L287.341,163.938z"/>
</g>
<g>
	<path style="fill:#61AAE4;" d="M396.634,66.79c-3.355-3.353-8.791-3.353-12.144,0l-48.574,48.575l12.144,12.143l48.575-48.574
		C399.987,75.579,399.987,70.143,396.634,66.79z"/>
	<path style="fill:#61AAE4;" d="M372.347,42.503c-3.355-3.353-8.791-3.353-12.144,0l-48.574,48.575l12.142,12.144l48.577-48.574
		C375.7,51.292,375.7,45.856,372.347,42.503z"/>
</g>
<path style="fill:#BFA993;" d="M271.15,131.555c-3.353,3.355-3.353,8.791,0,12.145c3.355,3.353,8.791,3.353,12.144-0.001
	l40.477-40.477l-12.142-12.144L271.15,131.555z"/>
<path style="fill:#61AAE4;" d="M348.059,18.217c-3.353-3.355-8.791-3.353-12.144-0.001l-48.573,48.577l12.143,12.142l48.573-48.574
	C351.412,27.005,351.411,21.569,348.059,18.217z"/>
<path style="fill:#BFA993;" d="M238.768,115.364c-3.355,3.355-3.353,8.792,0,12.143c3.355,3.355,8.791,3.353,12.143,0l48.574-48.574
	l-12.143-12.142L238.768,115.364z"/>
<g>
</g>
<g>
</g>
<g>
</g>
<g>
</g>
<g>
</g>
<g>
</g>
<g>
</g>
<g>
</g>
<g>
</g>
<g>
</g>
<g>
</g>
<g>
</g>
<g>
</g>
<g>
</g>
<g>
</g>
</svg>
