<?xml version="1.0" encoding="iso-8859-1"?>
<!-- Generator: Adobe Illustrator 19.0.0, SVG Export Plug-In . SVG Version: 6.00 Build 0)  -->
<svg version="1.1" id="Layer_1" xmlns="http://www.w3.org/2000/svg" xmlns:xlink="http://www.w3.org/1999/xlink" x="0px" y="0px"
	 viewBox="0 0 512 512" style="enable-background:new 0 0 512 512;" xml:space="preserve">
<g>
	<path style="fill:#EFC27B;" d="M308.717,214.919l-46.545-46.545c-3.409-3.407-8.934-3.407-12.343,0l-20.011,20.011v-2.203
		c0-4.821-3.906-8.727-8.727-8.727s-8.727,3.906-8.727,8.727v19.657l-9.081,9.081c-2.496,2.496-3.242,6.25-1.891,9.512
		c1.35,3.262,4.532,5.388,8.063,5.388h2.909v37.817c0,4.821,3.906,8.727,8.727,8.727h69.818c4.821,0,8.727-3.906,8.727-8.727
		v-37.818h2.909c3.529,0,6.713-2.126,8.063-5.388C311.959,221.169,311.212,217.416,308.717,214.919z"/>
	<path style="fill:#EFC27B;" d="M256,0C133.893,0,34.909,99.668,34.909,222.609C34.909,333.914,167.564,461.921,256,512
		c77.382-50.079,221.091-166.956,221.091-289.391C477.091,99.668,378.103,0,256,0z M256,337.455
		c-64.266,0-116.362-52.099-116.362-116.364S191.735,104.73,256,104.73s116.362,52.097,116.362,116.361S320.265,337.455,256,337.455
		z"/>
</g>
<g>
	<path style="fill:#ECB45C;" d="M299.636,267.636v-37.818h2.909c3.529,0,6.713-2.126,8.063-5.388
		c1.351-3.262,0.605-7.014-1.891-9.512l-46.545-46.545c-1.705-1.704-3.938-2.555-6.172-2.555v110.545h34.909
		C295.73,276.364,299.636,272.457,299.636,267.636z"/>
	<path style="fill:#ECB45C;" d="M256,0v104.73c64.265,0,116.362,52.097,116.362,116.361S320.265,337.455,256,337.455V512
		c77.382-50.079,221.091-166.956,221.091-289.391C477.091,99.668,378.103,0,256,0z"/>
</g>
<g>
</g>
<g>
</g>
<g>
</g>
<g>
</g>
<g>
</g>
<g>
</g>
<g>
</g>
<g>
</g>
<g>
</g>
<g>
</g>
<g>
</g>
<g>
</g>
<g>
</g>
<g>
</g>
<g>
</g>
</svg>
