<?xml version="1.0" encoding="iso-8859-1"?>
<!-- Generator: Adobe Illustrator 19.0.0, SVG Export Plug-In . SVG Version: 6.00 Build 0)  -->
<svg version="1.1" id="Layer_1" xmlns="http://www.w3.org/2000/svg" xmlns:xlink="http://www.w3.org/1999/xlink" x="0px" y="0px"
	 viewBox="0 0 512.001 512.001" style="enable-background:new 0 0 512.001 512.001;" xml:space="preserve">
<path style="fill:#EDEDED;" d="M400.09,105.745c-8.773-15.196-3.566-34.628,11.631-43.403c9.326-5.384,20.242-5.495,29.317-1.273
	l22.384-47.984C439.224,1.824,410.11,2.123,385.244,16.48c-24.208,13.977-38.911,38.098-41.839,63.893"/>
<path style="fill:#DBDBDB;" d="M459.254,92.625c-0.88,9.968-6.435,19.368-15.761,24.753c-15.197,8.773-34.629,3.566-43.405-11.631
	c-14.623-25.327-47.011-34.005-72.339-19.383L15.891,266.414c-15.195,8.774-20.403,28.208-11.629,43.404
	c8.775,15.197,28.208,20.404,43.404,11.629l311.857-180.051l0.51-0.447c25.395,33.672,72.481,43.916,109.938,22.289
	c24.867-14.359,39.682-39.422,42.029-66.007L459.254,92.625z"/>
<path style="fill:#C5142C;" d="M421.157,164.922L232.708,490.983c-8.774,15.198-28.207,20.404-43.404,11.63
	c-15.195-8.775-20.403-28.208-11.628-43.403l188.447-326.061L421.157,164.922z"/>
<path style="fill:#E07188;" d="M411.72,62.343c2.303-1.33,4.701-2.334,7.147-3.035L404.299,8.385
	c-6.519,1.868-12.917,4.552-19.057,8.097c-24.208,13.977-38.911,38.098-41.839,63.893l56.685,25.371
	C391.317,90.55,396.524,71.117,411.72,62.343z"/>
<path style="fill:#E02753;" d="M449.365,113.007c-1.749,1.643-3.704,3.119-5.872,4.371c-15.197,8.773-34.629,3.566-43.405-11.631
	c-14.623-25.327-47.011-34.005-72.339-19.383L15.891,266.414c-15.195,8.774-20.403,28.208-11.629,43.404
	c8.775,15.197,28.208,20.404,43.404,11.629l311.857-180.051l0.51-0.447c25.395,33.672,72.481,43.916,109.938,22.289
	c6.273-3.622,11.905-7.926,16.86-12.766L449.365,113.007z"/>
<path style="fill:#EDEDED;" d="M370.448,132.937C370.448,132.936,370.448,132.937,370.448,132.937
	c-0.818-0.819-1.526-1.743-2.107-2.749c-1.768-3.059-2.237-6.628-1.321-10.044c0.915-3.417,3.106-6.27,6.167-8.038
	c5.182-2.99,11.753-2.127,15.98,2.1c0.818,0.817,1.526,1.741,2.104,2.746c1.769,3.062,2.238,6.629,1.323,10.045
	c-0.915,3.418-3.107,6.272-6.17,8.04C381.248,138.028,374.676,137.165,370.448,132.937z"/>
<g>
</g>
<g>
</g>
<g>
</g>
<g>
</g>
<g>
</g>
<g>
</g>
<g>
</g>
<g>
</g>
<g>
</g>
<g>
</g>
<g>
</g>
<g>
</g>
<g>
</g>
<g>
</g>
<g>
</g>
</svg>
