<?xml version="1.0" encoding="iso-8859-1"?>
<!-- Generator: Adobe Illustrator 19.0.0, SVG Export Plug-In . SVG Version: 6.00 Build 0)  -->
<svg version="1.1" id="Layer_1" xmlns="http://www.w3.org/2000/svg" xmlns:xlink="http://www.w3.org/1999/xlink" x="0px" y="0px"
	 viewBox="0 0 512 512" style="enable-background:new 0 0 512 512;" xml:space="preserve">
<path style="fill:#EFC27B;" d="M0,76.8V384c0,28.278,22.924,51.2,51.2,51.2s51.2-22.922,51.2-51.2c0,28.278,22.924,51.2,51.2,51.2
	s51.2-22.922,51.2-51.2c0,28.278,22.924,51.2,51.2,51.2c28.278,0,51.2-22.922,51.2-51.2c0,28.278,22.922,51.2,51.2,51.2
	s51.2-22.922,51.2-51.2c0,28.278,22.922,51.2,51.2,51.2S512,412.278,512,384V76.8H0z"/>
<path style="fill:#F4D8AA;" d="M204.8,294.4V384c0,28.278,22.924,51.2,51.2,51.2c28.278,0,51.2-22.922,51.2-51.2v-89.6H204.8z"/>
<path style="fill:#EFC27B;" d="M256,294.4v140.8c28.278,0,51.2-22.922,51.2-51.2v-89.6H256z"/>
<path style="fill:#F7E3C6;" d="M0,294.4V384c0,28.278,22.924,51.2,51.2,51.2s51.2-22.922,51.2-51.2v-89.6H0z"/>
<path style="fill:#EFC27B;" d="M102.4,294.4V384c0,28.278,22.924,51.2,51.2,51.2s51.2-22.922,51.2-51.2v-89.6H102.4z"/>
<path style="fill:#E9A440;" d="M307.2,294.4V384c0,28.278,22.922,51.2,51.2,51.2s51.2-22.922,51.2-51.2v-89.6H307.2z"/>
<path style="fill:#ECB45C;" d="M409.6,294.4V384c0,28.278,22.922,51.2,51.2,51.2S512,412.278,512,384v-89.6H409.6z"/>
<path style="fill:#F4D8AA;" d="M51.2,204.8v89.6c0,28.278,22.924,51.2,51.2,51.2s51.2-22.922,51.2-51.2v-89.6H51.2z"/>
<path style="fill:#F7E3C6;" d="M153.6,204.8v89.6c0,28.278,22.924,51.2,51.2,51.2c28.278,0,51.2-22.922,51.2-51.2v-89.6H153.6z"/>
<path style="fill:#ECB45C;" d="M256,204.8v89.6c0,28.278,22.922,51.2,51.2,51.2s51.2-22.922,51.2-51.2v-89.6H256z"/>
<g>
	<path style="fill:#EFC27B;" d="M358.4,204.8v89.6c0,28.278,22.922,51.2,51.2,51.2c28.278,0,51.2-22.922,51.2-51.2v-89.6H358.4z"/>
	<path style="fill:#EFC27B;" d="M0,204.8v140.8c28.276,0,51.2-22.922,51.2-51.2v-89.6H0z"/>
</g>
<path style="fill:#E9A440;" d="M512,204.8h-51.2v89.6c0,28.278,22.922,51.2,51.2,51.2V204.8z"/>
<path style="fill:#F7E3C6;" d="M0,115.2v89.6C0,233.078,22.924,256,51.2,256s51.2-22.922,51.2-51.2v-89.6H0z"/>
<path style="fill:#EFC27B;" d="M102.4,115.2v89.6c0,28.278,22.924,51.2,51.2,51.2s51.2-22.922,51.2-51.2v-89.6H102.4z"/>
<path style="fill:#F4D8AA;" d="M204.8,115.2v89.6c0,28.278,22.924,51.2,51.2,51.2c28.278,0,51.2-22.922,51.2-51.2v-89.6H204.8z"/>
<path style="fill:#E9A440;" d="M307.2,115.2v89.6c0,28.278,22.922,51.2,51.2,51.2s51.2-22.922,51.2-51.2v-89.6H307.2z"/>
<path style="fill:#ECB45C;" d="M409.6,115.2v89.6c0,28.278,22.922,51.2,51.2,51.2s51.2-22.922,51.2-51.2v-89.6H409.6z"/>
<path style="fill:#EFC27B;" d="M256,115.2V256c28.278,0,51.2-22.922,51.2-51.2v-89.6H256z"/>
<path style="fill:#F4D8AA;" d="M51.2,76.8v38.4c0,28.278,22.924,51.2,51.2,51.2s51.2-22.922,51.2-51.2V76.8H51.2z"/>
<path style="fill:#F7E3C6;" d="M153.6,76.8v38.4c0,28.278,22.924,51.2,51.2,51.2c28.278,0,51.2-22.922,51.2-51.2V76.8H153.6z"/>
<path style="fill:#ECB45C;" d="M256,76.8v38.4c0,28.278,22.922,51.2,51.2,51.2s51.2-22.922,51.2-51.2V76.8H256z"/>
<g>
	<path style="fill:#EFC27B;" d="M358.4,76.8v38.4c0,28.278,22.922,51.2,51.2,51.2c28.278,0,51.2-22.922,51.2-51.2V76.8H358.4z"/>
	<path style="fill:#EFC27B;" d="M0,76.8v89.6c28.276,0,51.2-22.922,51.2-51.2V76.8H0z"/>
</g>
<path style="fill:#E9A440;" d="M512,76.8h-51.2v38.4c0,28.278,22.922,51.2,51.2,51.2V76.8z"/>
<g>
</g>
<g>
</g>
<g>
</g>
<g>
</g>
<g>
</g>
<g>
</g>
<g>
</g>
<g>
</g>
<g>
</g>
<g>
</g>
<g>
</g>
<g>
</g>
<g>
</g>
<g>
</g>
<g>
</g>
</svg>
