<?xml version="1.0" encoding="iso-8859-1"?>
<!-- Generator: Adobe Illustrator 19.0.0, SVG Export Plug-In . SVG Version: 6.00 Build 0)  -->
<svg version="1.1" id="Layer_1" xmlns="http://www.w3.org/2000/svg" xmlns:xlink="http://www.w3.org/1999/xlink" x="0px" y="0px"
	 viewBox="0 0 512 512" style="enable-background:new 0 0 512 512;" xml:space="preserve">
<path style="fill:#DBDBDB;" d="M312.264,354.654H132.22c-4.662,0-8.44,3.778-8.44,8.44c0,4.662,3.778,8.44,8.44,8.44h180.044
	c4.662,0,8.44-3.778,8.44-8.44C320.703,358.431,316.926,354.654,312.264,354.654z"/>
<path style="fill:#CCCCCE;" d="M64.703,354.654H39.385v-2.813c0-4.662-3.778-8.44-8.44-8.44s-8.44,3.778-8.44,8.44v22.505
	c0,4.662,3.778,8.44,8.44,8.44s8.44-3.778,8.44-8.44v-2.813h25.319c4.662,0,8.44-3.778,8.44-8.44
	C73.143,358.431,69.365,354.654,64.703,354.654z"/>
<rect x="64.703" y="318.081" style="fill:#F8E99B;" width="67.516" height="90.022"/>
<path style="fill:#CCCCCE;" d="M312.264,354.654H256v16.879h56.264c4.662,0,8.44-3.778,8.44-8.44
	C320.703,358.431,316.926,354.654,312.264,354.654z"/>
<path style="fill:#F8E99B;" d="M306.005,142.231l-83.549-83.547c-10.986-10.986-28.799-10.985-39.783,0l0,0
	c-10.987,10.987-10.987,28.799-0.001,39.785l83.548,83.546"/>
<polygon style="fill:#F6E27D;" points="306.005,142.231 256,92.227 256,171.796 266.22,182.015 "/>
<path style="fill:#DBDBDB;" d="M282.133,357.068c43.945,43.945,115.194,43.944,159.138,0.001l-16.48-38.986L323.517,216.808
	l-41.383-18.878C238.19,241.872,238.189,313.123,282.133,357.068z"/>
<path style="fill:#58575D;" d="M337.831,301.37c13.185,13.183,34.558,13.183,47.742,0l-5.792-17.045l-22.505-22.505l-19.444-8.19
	C324.649,266.812,324.649,288.186,337.831,301.37z"/>
<path style="fill:#CCCCCE;" d="M465.14,174.06c-57.127-57.128-149.75-57.129-206.88,0l206.88,206.88
	C522.269,323.81,522.268,231.187,465.14,174.06z"/>
<circle style="fill:#DBDBDB;" cx="481.055" cy="396.851" r="22.505"/>
<path style="fill:#88888F;" d="M503.56,444.676h-22.505v-47.824H30.945v47.824H8.44c-4.662,0-8.44,3.778-8.44,8.44
	s3.778,8.44,8.44,8.44H503.56c4.662,0,8.44-3.778,8.44-8.44S508.222,444.676,503.56,444.676z"/>
<path style="fill:#797781;" d="M503.56,444.676h-22.505v-47.824H256v47.824v8.44v8.44h247.56c4.662,0,8.44-3.778,8.44-8.44
	S508.222,444.676,503.56,444.676z"/>
<g>
</g>
<g>
</g>
<g>
</g>
<g>
</g>
<g>
</g>
<g>
</g>
<g>
</g>
<g>
</g>
<g>
</g>
<g>
</g>
<g>
</g>
<g>
</g>
<g>
</g>
<g>
</g>
<g>
</g>
</svg>
