<?xml version="1.0" encoding="iso-8859-1"?>
<!-- Generator: Adobe Illustrator 19.0.0, SVG Export Plug-In . SVG Version: 6.00 Build 0)  -->
<svg version="1.1" id="Layer_1" xmlns="http://www.w3.org/2000/svg" xmlns:xlink="http://www.w3.org/1999/xlink" x="0px" y="0px"
	 viewBox="0 0 512 512" style="enable-background:new 0 0 512 512;" xml:space="preserve">
<path style="fill:#EDEDED;" d="M143.473,490.901c-29.472,0-53.451-23.978-53.451-53.451V313.67c0-4.662,3.779-8.44,8.44-8.44
	c4.661,0,31.05,0,45.011,0c4.661,0,8.44,3.778,8.44,8.44s-3.779,8.44-8.44,8.44c-4.654,0-8.44,3.785-8.44,8.44s3.785,8.44,8.44,8.44
	c4.661,0,8.44,3.778,8.44,8.44s-3.779,8.44-8.44,8.44c-4.654,0-8.44,3.785-8.44,8.44s3.785,8.44,8.44,8.44
	c4.661,0,8.44,3.778,8.44,8.44s-3.779,8.44-8.44,8.44c-4.654,0-8.44,3.785-8.44,8.44s3.785,8.44,8.44,8.44
	c4.661,0,8.44,3.778,8.44,8.44s-3.779,8.44-8.44,8.44c-4.654,0-8.44,3.785-8.44,8.44s3.785,8.44,8.44,8.44
	c4.661,0,8.44,3.778,8.44,8.44s-3.779,8.44-8.44,8.44c-4.654,0-8.44,3.785-8.44,8.44c0,4.654,3.785,8.44,8.44,8.44
	c4.661,0,8.44,3.778,8.44,8.44S148.133,490.901,143.473,490.901z"/>
<path style="fill:#95D5A7;" d="M210.989,21.099c-87.006,0-157.538,70.532-157.538,157.538V313.67h405.099V178.637
	C458.549,91.631,378.787,21.099,210.989,21.099z M210.989,178.637V77.363c124.024,0,180.044,45.342,180.044,101.275H210.989z"/>
<path style="fill:#80CB93;" d="M458.549,178.637c0-78.824-65.467-144.125-202.549-155.711V79.6
	c92.643,9.758,135.033,50.389,135.033,99.038H256V313.67h202.549V178.637z"/>
<path style="fill:#BFA993;" d="M503.56,355.868H8.44c-4.661,0-8.44-3.778-8.44-8.44s3.779-8.44,8.44-8.44H503.56
	c4.662,0,8.44,3.778,8.44,8.44S508.222,355.868,503.56,355.868z"/>
<g>
	<path style="fill:#88888F;" d="M196.923,288.352c-4.661,0-8.44-3.778-8.44-8.44v-67.516c0-4.662,3.779-8.44,8.44-8.44
		c4.661,0,8.44,3.778,8.44,8.44v67.516C205.363,284.574,201.584,288.352,196.923,288.352z"/>
	<path style="fill:#88888F;" d="M230.681,288.352c-4.661,0-8.44-3.778-8.44-8.44v-67.516c0-4.662,3.779-8.44,8.44-8.44
		c4.661,0,8.44,3.778,8.44,8.44v67.516C239.121,284.574,235.342,288.352,230.681,288.352z"/>
</g>
<path style="fill:#EFC27B;" d="M391.033,246.154c0,18.644-15.115,33.758-33.758,33.758h-45.011
	c-18.644,0-33.758-15.115-33.758-33.758l0,0c0-18.644,15.115-33.758,33.758-33.758h45.011
	C375.918,212.396,391.033,227.51,391.033,246.154L391.033,246.154z"/>
<path style="fill:#797781;" d="M503.56,277.099h-45.011c-4.662,0-8.44-3.778-8.44-8.44s3.778-8.44,8.44-8.44h45.011
	c4.662,0,8.44,3.778,8.44,8.44S508.222,277.099,503.56,277.099z"/>
<path style="fill:#B29A7E;" d="M503.56,338.989H256v16.879h247.56c4.662,0,8.44-3.778,8.44-8.44S508.222,338.989,503.56,338.989z"/>
<g>
</g>
<g>
</g>
<g>
</g>
<g>
</g>
<g>
</g>
<g>
</g>
<g>
</g>
<g>
</g>
<g>
</g>
<g>
</g>
<g>
</g>
<g>
</g>
<g>
</g>
<g>
</g>
<g>
</g>
</svg>
