<?xml version="1.0" encoding="iso-8859-1"?>
<!-- Generator: Adobe Illustrator 19.0.0, SVG Export Plug-In . SVG Version: 6.00 Build 0)  -->
<svg version="1.1" id="Layer_1" xmlns="http://www.w3.org/2000/svg" xmlns:xlink="http://www.w3.org/1999/xlink" x="0px" y="0px"
	 viewBox="0 0 512 512" style="enable-background:new 0 0 512 512;" xml:space="preserve">
<path style="fill:#EDEDED;" d="M306.023,72.824L65.714,313.131l102.989,102.989l8.582-8.582l-0.001-0.001l12.343-29.506
	l29.507-12.343l12.34-29.504l29.502-12.34l12.339-29.504l29.504-12.338l12.336-29.501l29.5-12.335l12.333-29.499l29.501-12.336
	l12.336-29.501l29.501-12.336l12.335-29.5l29.501-12.336l12.335-29.5L512,72.824C455.121,15.944,362.902,15.944,306.023,72.824z"/>
<path style="fill:#DBDBDB;" d="M117.21,364.627l51.494,51.494l8.582-8.582l-0.001-0.001l12.343-29.506l29.507-12.343l12.34-29.504
	l29.502-12.34l12.339-29.504l29.504-12.338l12.336-29.501l29.5-12.335l12.333-29.499l29.501-12.336l12.336-29.501l29.501-12.336
	l12.335-29.5l29.501-12.336l12.335-29.5L512,72.824c-18.758-18.76-41.363-31.328-65.274-37.713L117.21,364.627z"/>
<path style="fill:#BFA993;" d="M57.132,287.385L14.22,330.297c-18.96,18.96-18.961,49.7,0,68.66l68.659,68.659
	c18.96,18.961,49.7,18.96,68.66,0l42.912-42.912L57.132,287.385z M142.956,424.703l-17.165,17.165c-4.74,4.74-12.424,4.741-17.165,0
	l-68.659-68.659c-4.74-4.74-4.74-12.424,0-17.165l17.163-17.166L142.956,424.703z"/>
<path style="fill:#CCCCCE;" d="M434.759,98.571L185.868,347.462c-3.555,3.555-9.319,3.555-12.873,0
	c-3.555-3.555-3.555-9.319,0-12.873L421.885,85.698c3.555-3.555,9.319-3.555,12.874,0C438.314,89.252,438.314,95.016,434.759,98.571
	z"/>
<path style="fill:#B29A7E;" d="M100.044,381.791l42.912,42.912l-17.165,17.165c-4.74,4.74-12.424,4.741-17.165,0l-34.329-34.329
	L48.55,433.287l34.329,34.329c18.96,18.961,49.7,18.96,68.66,0l42.912-42.912l-68.66-68.659L100.044,381.791z"/>
<g>
</g>
<g>
</g>
<g>
</g>
<g>
</g>
<g>
</g>
<g>
</g>
<g>
</g>
<g>
</g>
<g>
</g>
<g>
</g>
<g>
</g>
<g>
</g>
<g>
</g>
<g>
</g>
<g>
</g>
</svg>
