<?xml version="1.0" encoding="iso-8859-1"?>
<!-- Generator: Adobe Illustrator 19.0.0, SVG Export Plug-In . SVG Version: 6.00 Build 0)  -->
<svg version="1.1" id="Layer_1" xmlns="http://www.w3.org/2000/svg" xmlns:xlink="http://www.w3.org/1999/xlink" x="0px" y="0px"
	 viewBox="0 0 512.001 512.001" style="enable-background:new 0 0 512.001 512.001;" xml:space="preserve">
<path style="fill:#ECB45C;" d="M263.406,317.174c95.786-95.789,131.165-95.246,226.953-191.033
	c28.857-28.857,28.857-75.641,0-104.498c-28.857-28.855-75.641-28.857-104.497,0c-95.788,95.788-96.06,130.348-191.847,226.139
	L263.406,317.174z"/>
<path style="fill:#E9A440;" d="M229.116,282.885l34.288,34.288c95.788-95.789,131.166-95.246,226.955-191.033
	c28.855-28.857,28.854-75.64,0-104.497L229.116,282.885z"/>
<polygon style="fill:#EDEDED;" points="229.116,317.718 36.796,510.036 2.705,509.296 1.966,475.206 194.284,282.885 "/>
<polygon style="fill:#DBDBDB;" points="2.706,509.295 36.794,510.036 229.116,317.718 211.699,300.302 "/>
<path style="fill:#EFC27B;" d="M185.576,239.346L185.576,239.346c-14.427,14.427-14.427,37.821,0,52.249l34.833,34.833
	c14.427,14.426,37.819,14.426,52.247-0.001h0.001l8.709-8.706l-87.081-87.085L185.576,239.346z"/>
<path style="fill:#88888F;" d="M444.64,80.424L279.186,245.877c-3.608,3.608-9.455,3.608-13.063,0.001
	c-3.607-3.608-3.607-9.455,0.001-13.063L431.577,67.362c3.608-3.608,9.455-3.608,13.063,0
	C448.247,70.968,448.247,76.815,444.64,80.424z"/>
<path style="fill:#CCCCCE;" d="M33.184,491.878l-17.417,17.416c-3.607,3.608-9.454,3.608-13.061,0.001
	c-3.607-3.608-3.607-9.456,0.001-13.061l17.416-17.417c3.607-3.608,9.454-3.608,13.063-0.001
	C36.792,482.425,36.792,488.272,33.184,491.878z"/>
<path style="fill:#ECB45C;" d="M202.992,309.009l17.415,17.417c14.428,14.426,37.821,14.426,52.248-0.001v-0.001l8.709-8.704
	l-43.539-43.541L202.992,309.009z"/>
<g>
</g>
<g>
</g>
<g>
</g>
<g>
</g>
<g>
</g>
<g>
</g>
<g>
</g>
<g>
</g>
<g>
</g>
<g>
</g>
<g>
</g>
<g>
</g>
<g>
</g>
<g>
</g>
<g>
</g>
</svg>
