<?xml version="1.0" encoding="iso-8859-1"?>
<!-- Generator: Adobe Illustrator 19.0.0, SVG Export Plug-In . SVG Version: 6.00 Build 0)  -->
<svg version="1.1" id="Layer_1" xmlns="http://www.w3.org/2000/svg" xmlns:xlink="http://www.w3.org/1999/xlink" x="0px" y="0px"
	 viewBox="0 0 512.001 512.001" style="enable-background:new 0 0 512.001 512.001;" xml:space="preserve">
<path style="fill:#DBDBDB;" d="M426.951,341.048c-13.13,0-25.561,2.979-36.664,8.292l-226.77-226.77
	c5.313-11.102,8.292-23.535,8.292-36.662c0-46.97-38.077-85.047-85.047-85.047S1.715,38.937,1.715,85.908
	s38.077,85.047,85.047,85.047c13.13,0,25.561-2.979,36.664-8.292l226.77,226.77c-5.313,11.102-8.292,23.534-8.292,36.662
	c0,46.97,38.077,85.047,85.047,85.047s85.047-38.077,85.047-85.047S473.922,341.048,426.951,341.048z M86.762,114.255
	c-15.657,0-28.349-12.692-28.349-28.349s12.692-28.349,28.349-28.349s28.349,12.692,28.349,28.349S102.42,114.255,86.762,114.255z
	 M426.951,454.444c-15.657,0-28.349-12.692-28.349-28.349c0-15.657,12.692-28.349,28.349-28.349
	c15.657,0,28.349,12.692,28.349,28.349C455.3,441.752,442.609,454.444,426.951,454.444z"/>
<path style="fill:#CCCCCE;" d="M426.951,341.048c-13.13,0-25.561,2.979-36.664,8.292L256.857,215.908v80.185l93.339,93.339
	c-5.313,11.102-8.292,23.534-8.292,36.662c0,46.97,38.077,85.047,85.047,85.047s85.047-38.077,85.047-85.047
	S473.922,341.048,426.951,341.048z M426.951,454.444c-15.657,0-28.349-12.692-28.349-28.349c0-15.657,12.692-28.349,28.349-28.349
	c15.657,0,28.349,12.692,28.349,28.349C455.3,441.752,442.609,454.444,426.951,454.444z"/>
<path style="fill:#EDEDED;" d="M503.706,49.242l-56.71,56.709l-40.091-40.091l56.71-56.71c-11.103-5.313-23.534-8.292-36.664-8.292
	c-46.97,0-85.047,38.077-85.047,85.047c0,13.128,2.98,25.561,8.294,36.662L123.321,349.445c-11.507-5.812-24.502-9.106-38.274-9.106
	C38.078,340.339,0,378.415,0,425.385c0,13.13,2.981,25.561,8.294,36.664l56.71-56.71l40.091,40.091l-56.71,56.71
	c11.103,5.313,23.535,8.294,36.664,8.294c46.97-0.001,85.047-38.077,85.047-85.049c0-12.479-2.71-24.316-7.538-34.994
	L390.29,162.659c11.103,5.313,23.534,8.294,36.662,8.294c46.97,0.001,85.047-38.076,85.049-85.046
	C512,72.778,509.019,60.345,503.706,49.242z"/>
<path style="fill:#DBDBDB;" d="M503.706,49.242l-56.71,56.709l-40.091-40.091l56.71-56.71c-11.103-5.313-23.534-8.292-36.664-8.292
	c-46.97,0-85.047,38.077-85.047,85.047c0,13.128,2.98,25.561,8.294,36.662l-93.341,93.341v80.183L390.29,162.658
	c11.103,5.313,23.534,8.294,36.662,8.294c46.97,0.001,85.047-38.076,85.049-85.046C512,72.778,509.019,60.345,503.706,49.242z"/>
<g>
</g>
<g>
</g>
<g>
</g>
<g>
</g>
<g>
</g>
<g>
</g>
<g>
</g>
<g>
</g>
<g>
</g>
<g>
</g>
<g>
</g>
<g>
</g>
<g>
</g>
<g>
</g>
<g>
</g>
</svg>
