<?xml version="1.0" encoding="iso-8859-1"?>
<!-- Generator: Adobe Illustrator 19.0.0, SVG Export Plug-In . SVG Version: 6.00 Build 0)  -->
<svg version="1.1" id="Layer_1" xmlns="http://www.w3.org/2000/svg" xmlns:xlink="http://www.w3.org/1999/xlink" x="0px" y="0px"
	 viewBox="0 0 512.001 512.001" style="enable-background:new 0 0 512.001 512.001;" xml:space="preserve">
<path style="fill:#DBDBDB;" d="M223.262,328.887l82.664,82.664c23.641,23.641,61.971,23.641,85.616-0.001
	c6.577-6.577,11.318-14.292,14.236-22.512v0.001l0.02-0.053c0.129-0.368,0.247-0.741,0.369-1.111L508.343,81.279
	c7.802-21.425,3.122-46.372-14.065-63.558C477.093,0.535,452.146-4.146,430.721,3.658L124.125,105.834
	c-0.369,0.122-0.742,0.24-1.111,0.369l-0.054,0.018l0.001,0.001c-8.218,2.917-15.934,7.658-22.511,14.236
	c-23.642,23.642-23.642,61.973,0.001,85.615l82.661,82.662"/>
<path style="fill:#CCCCCE;" d="M203.189,308.813l20.074,20.075l82.664,82.664c23.641,23.641,61.971,23.641,85.616-0.001
	c6.577-6.575,11.318-14.292,14.236-22.512v0.001l0.02-0.052c0.129-0.368,0.247-0.741,0.369-1.111L508.343,81.28
	c7.802-21.425,3.122-46.372-14.063-63.558L203.189,308.813z"/>
<path style="fill:#EDEDED;" d="M132.926,419.226l200.752-200.752c11.088-11.088,11.088-29.064,0-40.15l0,0
	c-11.088-11.087-29.064-11.087-40.15,0L92.774,379.076L132.926,419.226z"/>
<path style="fill:#DBDBDB;" d="M132.926,419.226l200.752-200.752c11.088-11.088,11.088-29.064,0-40.15L112.849,399.151
	L132.926,419.226z"/>
<path style="fill:#BFA993;" d="M153,419.226l-80.3,80.302c-16.631,16.63-43.595,16.63-60.225,0l0,0
	c-16.631-16.63-16.63-43.595,0-60.225l80.3-80.302L153,419.226z"/>
<path style="fill:#B29A7E;" d="M12.474,499.527c16.63,16.631,43.595,16.631,60.225,0l80.3-80.302l-30.111-30.113L12.474,499.527z"/>
<g>
</g>
<g>
</g>
<g>
</g>
<g>
</g>
<g>
</g>
<g>
</g>
<g>
</g>
<g>
</g>
<g>
</g>
<g>
</g>
<g>
</g>
<g>
</g>
<g>
</g>
<g>
</g>
<g>
</g>
</svg>
