<?xml version="1.0" encoding="iso-8859-1"?>
<!-- Generator: Adobe Illustrator 19.0.0, SVG Export Plug-In . SVG Version: 6.00 Build 0)  -->
<svg version="1.1" id="Layer_1" xmlns="http://www.w3.org/2000/svg" xmlns:xlink="http://www.w3.org/1999/xlink" x="0px" y="0px"
	 viewBox="0 0 512 512" style="enable-background:new 0 0 512 512;" xml:space="preserve">
<polyline style="fill:#ECB45C;" points="426.22,278.785 501.277,278.785 501.277,214.45 426.22,214.45 "/>
<path style="fill:#F8E99B;" d="M243.937,300.23V171.56c0-47.375,38.405-85.78,85.78-85.78h75.058l53.613,53.613v75.058
	c0,25.619-11.232,48.615-29.039,64.333"/>
<rect x="243.937" y="278.785" style="fill:#ECB45C;" width="32.168" height="32.168"/>
<rect x="29.487" y="310.953" style="fill:#797781;" width="450.346" height="53.613"/>
<rect x="168.88" y="289.508" style="fill:#58575D;" width="85.78" height="32.168"/>
<polygon style="fill:#88888F;" points="125.99,321.675 179.602,321.675 179.602,289.508 190.325,289.508 190.325,257.34 
	125.99,257.34 "/>
<polygon style="fill:#EFC27B;" points="211.77,182.283 211.77,214.45 179.602,214.45 179.602,289.508 243.937,289.508 
	243.937,182.283 "/>
<rect x="211.77" y="182.283" style="fill:#ECB45C;" width="32.168" height="32.168"/>
<path style="fill:#F6E27D;" d="M404.775,85.78h-75.058c-25.629,0-48.617,11.253-64.335,29.072v182.897l163.967-18.967
	c17.807-15.717,29.039-38.713,29.039-64.332v-75.058L404.775,85.78z"/>
<g>
	
		<circle style="fill:none;stroke:#2E2D31;stroke-width:15;stroke-linecap:round;stroke-linejoin:round;stroke-miterlimit:10;" cx="88.461" cy="369.927" r="5.361"/>
	
		<circle style="fill:none;stroke:#2E2D31;stroke-width:15;stroke-linecap:round;stroke-linejoin:round;stroke-miterlimit:10;" cx="313.634" cy="369.927" r="5.361"/>
	
		<circle style="fill:none;stroke:#2E2D31;stroke-width:15;stroke-linecap:round;stroke-linejoin:round;stroke-miterlimit:10;" cx="410.136" cy="369.927" r="5.361"/>
	
		<line style="fill:none;stroke:#2E2D31;stroke-width:15;stroke-linecap:round;stroke-linejoin:round;stroke-miterlimit:10;" x1="8.042" y1="321.675" x2="61.654" y2="321.675"/>
	
		<line style="fill:none;stroke:#2E2D31;stroke-width:15;stroke-linecap:round;stroke-linejoin:round;stroke-miterlimit:10;" x1="93.822" y1="257.34" x2="61.654" y2="257.34"/>
</g>
<path style="fill:#F8F8F9;" d="M287.324,96.999c-13.399,7.636-24.532,18.769-32.168,32.168l152.165,152.165l22.028-2.549
	c7.084-6.253,13.123-13.662,17.833-21.926L287.324,96.999z"/>
<circle style="fill:#F6E27D;" cx="211.77" cy="182.283" r="32.168"/>
<rect x="243.937" y="310.953" style="fill:#58575D;" width="235.895" height="53.613"/>
<circle style="fill:#88888F;" cx="88.461" cy="369.927" r="48.251"/>
<path style="fill:#EDEDED;" d="M88.461,383.33c-7.391,0-13.403-6.012-13.403-13.403c0-7.391,6.012-13.403,13.403-13.403
	c7.391,0,13.403,6.012,13.403,13.403C101.864,377.318,95.852,383.33,88.461,383.33z"/>
<circle style="fill:#797781;" cx="313.634" cy="369.927" r="48.251"/>
<path style="fill:#DBDBDB;" d="M313.634,383.33c-7.391,0-13.403-6.012-13.403-13.403c0-7.391,6.012-13.403,13.403-13.403
	c7.391,0,13.403,6.012,13.403,13.403C327.037,377.318,321.025,383.33,313.634,383.33z"/>
<circle style="fill:#797781;" cx="410.136" cy="369.927" r="48.251"/>
<path style="fill:#DBDBDB;" d="M410.136,383.33c-7.391,0-13.403-6.012-13.403-13.403c0-7.391,6.012-13.403,13.403-13.403
	c7.391,0,13.403,6.012,13.403,13.403C423.539,377.318,417.527,383.33,410.136,383.33z"/>
<path style="fill:#88888F;" d="M458.387,426.22H40.209c-4.441,0-8.042-3.601-8.042-8.042s3.601-8.042,8.042-8.042h418.178
	c4.441,0,8.042,3.601,8.042,8.042S462.829,426.22,458.387,426.22z"/>
<path style="fill:#797781;" d="M458.387,410.136H265.382v16.084h193.005c4.441,0,8.042-3.601,8.042-8.042
	S462.829,410.136,458.387,410.136z"/>
<polygon style="fill:#F8E99B;" points="93.822,139.393 8.042,225.172 8.042,364.565 29.487,364.565 61.654,321.675 136.712,321.675 
	136.712,139.393 "/>
<polygon style="fill:#D1E5F5;" points="93.822,139.393 61.653,139.393 8.042,193.004 8.042,225.173 93.822,225.173 "/>
<path style="fill:#88888F;" d="M93.822,265.382H61.654c-4.441,0-8.042-3.601-8.042-8.042c0-4.441,3.601-8.042,8.042-8.042h32.168
	c4.441,0,8.042,3.601,8.042,8.042C101.864,261.782,98.263,265.382,93.822,265.382z"/>
<polygon style="fill:#B4D8F1;" points="8.042,225.173 93.822,225.173 93.822,139.393 8.042,225.172 "/>
<path style="fill:#88888F;" d="M75.058,329.717H8.042c-4.441,0-8.042-3.601-8.042-8.042c0-4.441,3.601-8.042,8.042-8.042h67.016
	c4.441,0,8.042,3.601,8.042,8.042C83.099,326.117,79.499,329.717,75.058,329.717z"/>
<path style="fill:#EDEDED;" d="M287.324,96.999c-8.276,4.716-15.685,10.77-21.941,17.866v24.528L407.32,281.332l22.028-2.549
	c7.084-6.253,13.123-13.662,17.833-21.926L287.324,96.999z"/>
<polygon style="fill:#F6E27D;" points="243.937,364.565 286.827,321.675 436.942,321.675 479.832,364.565 512,332.398 
	458.387,278.785 265.382,278.785 211.77,332.398 "/>
<polygon style="fill:#EFC27B;" points="458.387,278.785 265.382,278.785 265.382,343.12 286.827,321.675 436.942,321.675 
	479.832,364.565 512,332.398 "/>
<g>
</g>
<g>
</g>
<g>
</g>
<g>
</g>
<g>
</g>
<g>
</g>
<g>
</g>
<g>
</g>
<g>
</g>
<g>
</g>
<g>
</g>
<g>
</g>
<g>
</g>
<g>
</g>
<g>
</g>
</svg>
