<?xml version="1.0" encoding="iso-8859-1"?>
<!-- Generator: Adobe Illustrator 19.0.0, SVG Export Plug-In . SVG Version: 6.00 Build 0)  -->
<svg version="1.1" id="Layer_1" xmlns="http://www.w3.org/2000/svg" xmlns:xlink="http://www.w3.org/1999/xlink" x="0px" y="0px"
	 viewBox="0 0 512 512" style="enable-background:new 0 0 512 512;" xml:space="preserve">
<rect y="76.8" style="fill:#F7E3C6;" width="256" height="358.4"/>
<g>
	<rect x="256" y="76.8" style="fill:#EFC27B;" width="256" height="358.4"/>
	<rect x="256" y="345.6" style="fill:#EFC27B;" width="204.8" height="89.6"/>
</g>
<g>
	<rect x="153.6" y="256" style="fill:#F7E3C6;" width="204.8" height="89.6"/>
	<rect x="153.6" y="76.8" style="fill:#F7E3C6;" width="204.8" height="89.6"/>
</g>
<g>
	<rect x="256" y="76.8" style="fill:#F4D8AA;" width="102.4" height="89.6"/>
	<rect x="256" y="256" style="fill:#F4D8AA;" width="102.4" height="89.6"/>
</g>
<rect y="76.8" style="fill:#EFC27B;" width="153.6" height="89.6"/>
<rect x="358.4" y="76.8" style="fill:#ECB45C;" width="153.6" height="89.6"/>
<rect y="256" style="fill:#EFC27B;" width="153.6" height="89.6"/>
<rect x="358.4" y="256" style="fill:#ECB45C;" width="153.6" height="89.6"/>
<g>
	<rect x="460.8" y="345.6" style="fill:#E9A440;" width="51.2" height="89.6"/>
	<rect x="460.8" y="166.4" style="fill:#E9A440;" width="51.2" height="89.6"/>
</g>
<rect x="51.2" y="345.6" style="fill:#F4D8AA;" width="204.8" height="89.6"/>
<rect x="256" y="166.4" style="fill:#EFC27B;" width="204.8" height="89.6"/>
<rect x="51.2" y="166.4" style="fill:#F4D8AA;" width="204.8" height="89.6"/>
<g>
</g>
<g>
</g>
<g>
</g>
<g>
</g>
<g>
</g>
<g>
</g>
<g>
</g>
<g>
</g>
<g>
</g>
<g>
</g>
<g>
</g>
<g>
</g>
<g>
</g>
<g>
</g>
<g>
</g>
</svg>
